<?xml version="1.0" encoding="utf-8"?>
<!-- Generator: Adobe Illustrator 27.6.1, SVG Export Plug-In . SVG Version: 6.00 Build 0)  -->
<svg version="1.1" id="Layer_1" xmlns="http://www.w3.org/2000/svg" xmlns:xlink="http://www.w3.org/1999/xlink" x="0px" y="0px"
	 viewBox="0 0 601.9 515.8" style="enable-background:new 0 0 601.9 515.8;" xml:space="preserve">
<path d="M53.6,436.3c-3.6,1.7-10.8,3.6-19.9,3.6C16.4,439.9,0,429.7,0,408.1c0-16.1,12.3-32.3,36.2-32.3c9.6,0,15,2.1,17.2,3.1
	l-1.5,3.8c-3.8-1.8-9.5-3.1-15.4-3.1c-20.7,0-31.6,12.2-31.6,28.9c0,15.2,10.5,27.5,30.5,27.5c6.2,0,12.5-1.2,16.8-3.3L53.6,436.3
	L53.6,436.3L53.6,436.3z"/>
<path d="M71.3,381.7c0,2-1.5,4-4,4c-2.2,0-3.7-1.9-3.7-4s1.7-4,3.9-4S71.3,379.6,71.3,381.7z M65.2,438.8v-44.1h4.6v44.1H65.2z"/>
<path d="M93,381.6v13.1h14.4v3.6H93v28.2c0,5.4,1.7,9.5,7.3,9.5c2.7,0,4.6-0.4,5.9-0.8l0.6,3.5c-1.6,0.6-4,1.2-7,1.2
	c-3.6,0-6.5-1.1-8.4-3.3c-2.3-2.5-3-6.5-3-10.6v-27.6H80v-3.6h8.3V383L93,381.6C93,381.6,93,381.6,93,381.6z"/>
<path d="M117,394.7l13.5,29.5c1.3,2.9,2.8,6.5,3.7,9.3h0.2c1-2.8,2.3-6.1,3.8-9.6l12.7-29.1h5l-16.1,35.6
	c-6.2,14-10.3,20.8-16.3,25.1c-3.9,2.8-7.4,3.8-8.3,4l-1.2-3.8c2.3-0.6,5.5-1.9,8.3-4.3c2.4-1.9,5.9-5.6,8.7-11.8
	c0.4-0.8,0.6-1.4,0.6-1.7s-0.2-1-0.7-2L112,394.7H117L117,394.7z"/>
<path d="M230.9,416.2c0,16.5-13.2,23.7-24.4,23.7c-13.5,0-23.3-9.6-23.3-22.7c0-14.7,11.3-23.6,24-23.6
	C221.8,393.6,230.9,403.6,230.9,416.2L230.9,416.2z M187.8,416.9c0,12.3,9.2,19.3,19,19.3s19.5-7.1,19.5-19.7
	c0-8.4-5.8-19.2-19.1-19.2S187.8,406.7,187.8,416.9L187.8,416.9z"/>
<path d="M243.3,438.8v-40.5h-6.9v-3.6h6.9v-2.1c0-7.5,1.6-13.1,5.5-16.7c2.8-2.6,6.6-4,10.8-4c3.2,0,6,0.8,7.5,1.6l-1.5,3.5
	c-1.4-0.7-3.3-1.4-6.3-1.4c-9.3,0-11.2,7.9-11.2,16.8v2.2h13.3v3.6h-13.3v40.5L243.3,438.8L243.3,438.8z"/>
<path d="M292.9,376.9h4.6V435h31.6v3.8h-36.2V376.9L292.9,376.9z"/>
<path d="M381.3,416.2c0,16.5-13.2,23.7-24.4,23.7c-13.5,0-23.3-9.6-23.3-22.7c0-14.7,11.3-23.6,24-23.6
	C372.1,393.6,381.2,403.6,381.3,416.2L381.3,416.2L381.3,416.2z M338.2,416.9c0,12.3,9.2,19.3,19,19.3s19.5-7.1,19.5-19.7
	c0-8.4-5.8-19.2-19.1-19.2S338.2,406.7,338.2,416.9z"/>
<path d="M393.6,405.4c0-3.6-0.1-7.1-0.4-10.6h4.4l0.4,8.8h0.2c2.7-5.4,9.2-9.9,17.5-9.9c4.2,0,17.7,1.8,17.7,20.1v25.1h-4.6v-25.1
	c0-8.6-3.9-16.2-14.3-16.2c-7.3,0-13.3,4.9-15.4,10.5c-0.4,1-0.8,2.6-0.8,4v26.9h-4.6L393.6,405.4L393.6,405.4L393.6,405.4z"/>
<path d="M489.7,373.1v55.1c0,3.6,0.1,7.1,0.4,10.6h-4.2l-0.3-9.2h-0.2c-2.6,5.5-8.9,10.3-18.3,10.3c-12.8,0-21.8-9.9-21.8-22.1
	c-0.1-14.3,10.1-24.1,22.9-24.1c9.5,0,14.8,4.9,16.8,8.4h0.2v-29L489.7,373.1L489.7,373.1L489.7,373.1z M485.1,412.4
	c0-1.3-0.2-3-0.6-4.3c-2-6-7.8-10.8-16.3-10.8c-10.8,0-18.3,8-18.3,19.9c0,9.9,6,19,18.2,19c7.8,0,14.5-5.1,16.4-12.1
	c0.4-1.2,0.6-2.4,0.6-3.9L485.1,412.4L485.1,412.4L485.1,412.4z"/>
<path d="M549.8,416.2c0,16.5-13.2,23.7-24.4,23.7c-13.5,0-23.3-9.6-23.3-22.7c0-14.7,11.3-23.6,24-23.6
	C540.6,393.6,549.8,403.6,549.8,416.2L549.8,416.2L549.8,416.2z M506.7,416.9c0,12.3,9.2,19.3,19,19.3s19.5-7.1,19.5-19.7
	c0-8.4-5.8-19.2-19.1-19.2S506.7,406.7,506.7,416.9z"/>
<path d="M562.2,405.4c0-3.6-0.1-7.1-0.4-10.6h4.3l0.4,8.8h0.2c2.7-5.4,9.2-9.9,17.5-9.9c4.2,0,17.7,1.8,17.7,20.1v25.1h-4.6v-25.1
	c0-8.6-3.9-16.2-14.3-16.2c-7.3,0-13.3,4.9-15.4,10.5c-0.4,1-0.8,2.6-0.8,4v26.9h-4.6L562.2,405.4L562.2,405.4L562.2,405.4z"/>
<path d="M384.1,0c-4,6.1-8.6,12-14,17.7c-11.7,12.5-25.8,23.3-40.6,33.4c-5.6-3.7-11.3-7.3-16.9-11c-0.2-0.1-0.4-0.2-0.6-0.4
	C330.5,27.6,347.6,15,360.2,0H384.1z"/>
<path d="M390.2,359.8h-22c-12.9-20.1-33.6-35.6-56.3-50.7c-5.1-3.4-10.4-6.7-15.6-10.1l0,0c0,0-0.4-0.3-0.5-0.3
	c-2.1-1.4-4.2-2.7-6.3-4.1c-0.7-0.5-1.4-0.9-2.1-1.4c-1.2-0.8-2.5-1.6-3.7-2.4c-0.8-0.5-1.5-1-2.2-1.5s-1.5-1-2.2-1.5l-2.5-1.7
	c-16.3-10.9-32-22.5-44.8-36.2c-20.8-22.2-30.9-46.9-30.9-75.5S211,121.2,231.7,99c11.7-12.5,25.8-23.3,40.6-33.4
	c5.6,3.7,11.3,7.3,16.9,11c0.2,0.1,0.4,0.2,0.6,0.4c-37.7,24.9-69.8,51.3-69.8,97.6s32.2,72.7,69.9,97.6c5.1,3.4,10.4,6.7,15.6,10.1
	l0,0c0,0,0.4,0.3,0.5,0.3c1.4,0.9,2.8,1.8,4.2,2.7c1.4,0.9,2.7,1.8,4.1,2.6c2.8,1.8,5.6,3.6,8.3,5.5l2.5,1.7
	c16.3,10.9,32,22.5,44.8,36.2C378.5,340.4,385.2,349.9,390.2,359.8L390.2,359.8L390.2,359.8z"/>
<path d="M294.8,101.2l0-2.6V88.3l-0.8,3.6v3.6c0,0-0.8,0-0.8,1.4s0.8,1.4,0.8,1.4l-0.8,3.6l-0.8,1.4v1.4c0,0-2.4,1.4-2.4,4.3
	c0,2.3-0.1,5.3-0.1,6.3c0,0.2-0.2,0.4-0.5,0.4h-1.1l-2.3,2.5h1c0.3,0,0.6,0.3,0.6,0.6v11.5c0,0-2.4,0-3.2,1.4v2.1c0,0-0.8,0-0.8,0.7
	s0.8,0.7,0.8,0.7v1.4c0,0-26,8.5-27.6,29.8c0,0-1.6,0.7-1.6,1.4V182l-11.4,2.5v39.7l6.7,5.3c0,0,31.7,25.3,49.8,36.2l2.8,1.7
	c0.8,0.5,1.6,1,2.5,1.5s1.6,1,2.5,1.5c1.4,0.8,2.7,1.6,4.1,2.4c0.8,0.5,1.6,0.9,2.4,1.4c2.4,1.4,4.7,2.7,7.1,4.1
	c0.2,0.1,0.6,0.4,0.6,0.4l20.3-11c-1.5-0.9-3.1-1.8-4.6-2.6c-1.6-0.9-3.1-1.8-4.7-2.7c-0.2-0.1-0.6-0.3-0.6-0.3l0,0
	c-5.9-3.4-11.7-6.7-17.4-10.1c-14.1-8.4-27.5-16.9-39.1-26.3c-2.9-2.4-5.7-4.8-8.3-7.2l0.1-27.2c2.4-0.7,12.5-11.1,12.5-11.1
	c0-10.2,0-15.4,0-16.3c0.3-6.6,1.6-21.3,11-28.4v-18.8l0.6-1.3h0.9l0.1-6.8c0,0,0-2.8,0.8-3.6v-2.1"/>
<path d="M377,109h-78.2c0.1-3.2-2-4.4-2-4.4v-1.4l-0.7-1.4l-0.7-3.6c0,0,0.7,0,0.7-1.4s-0.7-1.4-0.7-1.4v-3.6l-0.3-2.1l62.4-0.8
	c5.2,4.5,9.1,9,12.8,12.9C372.6,104.4,374.9,106.4,377,109L377,109L377,109z"/>
<path d="M399.8,159.9h-71.9c-2.2-8.9-8.4-15.2-13.9-19.1h81.2C397.3,146.9,398.9,153.3,399.8,159.9L399.8,159.9L399.8,159.9z"/>
<path d="M397.8,192.3c-0.9,6.6-2.5,13-4.5,19.1h-52.9v-19.1H397.8z"/>
<path d="M363.8,243.9c-1,2.5-2.1,5.1-3.3,7.5c-1.9,4.1-4,7.9-6.1,11.6h-9.1v-19.1L363.8,243.9L363.8,243.9L363.8,243.9z"/>
<path d="M289.9,309.2c-22.7,15-43.4,30.5-56.2,50.6h-22c4.9-10,11.6-19.5,20.1-28.5c11.7-12.5,25.8-23.3,40.6-33.4
	c5.6,3.7,11.2,7.3,16.9,10.9C289.5,309,289.7,309.1,289.9,309.2L289.9,309.2L289.9,309.2z"/>
<path d="M401,174.5c0,5.6-0.4,11.1-1.2,16.4c-1,6.6-2.5,13-4.7,19.1c-4,11.4-10.1,22.2-18.4,32.4c-2,2.5-4.2,5.1-6.5,7.5
	c-3.8,4.1-7.8,7.9-12,11.6c-8.9,7.8-18.6,14.9-28.6,21.8c-5.6-3.7-11.2-7.3-16.9-10.9c-0.2-0.1-0.4-0.3-0.6-0.4
	c5.2-3.4,10.3-6.9,15.2-10.4c8.5-6.1,16.4-12.4,23.4-19.1c10-9.6,18.3-20.2,23.8-32.4c2.7-6,4.7-12.3,5.9-19.1
	c0.9-5.2,1.4-10.6,1.4-16.4s-0.5-11-1.4-16c-1.2-6.8-3.2-13.2-5.9-19.1c-5.4-12.2-13.6-22.8-23.6-32.4c-7-6.8-14.9-13.1-23.3-19.2
	c-10.1-7.3-20.9-14.3-31.9-21.3c-22.7-14.6-46.2-29.7-64-48.7c-5.4-5.7-10-11.6-14-17.7h23.8c16.3,19.4,40,34.6,64.5,50.3
	c18,11.6,36.6,23.5,52.4,37.4c4.1,3.6,8,7.3,11.6,11.3c2.4,2.6,4.7,5.2,6.8,7.9c8.2,10.2,14.3,21,18.2,32.4
	c2.1,6.2,3.7,12.6,4.6,19.1C400.6,163.7,400.9,169,401,174.5L401,174.5L401,174.5z"/>
<path d="M72.7,475.7c0-2.4,1.9-4.2,4.5-4.2s4.5,1.7,4.5,4c0,2.5-1.9,4.4-4.5,4.4S72.7,478.1,72.7,475.7L72.7,475.7L72.7,475.7z
	 M73.7,484.9h7V515h-7V484.9z"/>
<path d="M117.5,494.8h6.9v15.7c-4.1,3.3-9.9,5-15.4,5c-12.2,0-21.2-8.5-21.2-20.3s9-20.3,21.3-20.3c6.6,0,12.1,2.2,15.8,6.4
	l-4.6,4.5c-3.1-3.1-6.7-4.5-10.9-4.5c-8.4,0-14.3,5.7-14.3,13.9s5.9,13.9,14.3,13.9c2.8,0,5.6-0.6,8.1-2L117.5,494.8L117.5,494.8
	L117.5,494.8z"/>
<path d="M163.7,508.8v6.1h-29.6v-39.4h28.8v6.1h-21.5v10.2h19v6h-19v10.9L163.7,508.8L163.7,508.8z"/>
<path d="M208.1,515l-0.1-26.1l-13,21.6h-3.3l-13-21.3V515h-7v-39.4h6l15.7,26.1l15.4-26.1h6L215,515H208.1L208.1,515L208.1,515z"/>
<path d="M249.2,481.7h-13.1v-6.2h33.5v6.2h-13.1V515h-7.3L249.2,481.7L249.2,481.7z"/>
<path d="M299.5,502.2h-23.6c0.8,4.4,4.5,7.2,9.8,7.2c3.4,0,6-1.1,8.2-3.3l3.8,4.3c-2.7,3.2-6.9,4.9-12.1,4.9
	c-10.1,0-16.6-6.5-16.6-15.4s6.6-15.4,15.6-15.4s15.2,6.1,15.2,15.6C299.6,500.7,299.6,501.5,299.5,502.2L299.5,502.2L299.5,502.2z
	 M275.9,497.5h17.1c-0.6-4.3-3.9-7.3-8.5-7.3S276.5,493.1,275.9,497.5z"/>
<path d="M330.7,497.4V515h-6.6v-3.7c-1.7,2.6-5,4.1-9.5,4.1c-6.9,0-11.2-3.8-11.2-9s3.4-9,12.5-9h7.8v-0.5c0-4.1-2.5-6.5-7.5-6.5
	c-3.4,0-6.9,1.1-9.1,3l-2.8-5.1c3.2-2.5,7.9-3.7,12.7-3.7C325.7,484.5,330.7,488.6,330.7,497.4L330.7,497.4L330.7,497.4z
	 M323.7,505.6v-3.5h-7.3c-4.8,0-6.1,1.8-6.1,4c0,2.5,2.1,4.2,5.8,4.2S322.5,508.7,323.7,505.6L323.7,505.6L323.7,505.6z"/>
<path d="M390.1,497.8V515h-7v-16.3c0-5.4-2.5-8-6.8-8c-4.6,0-7.8,3-7.8,9V515h-7v-16.3c0-5.4-2.5-8-6.8-8c-4.7,0-7.8,3-7.8,9V515h-7
	v-30.1h6.7v3.8c2.3-2.7,5.8-4.2,9.9-4.2c4.4,0,8,1.6,10.1,5c2.4-3.1,6.5-5,11.3-5C385,484.6,390,488.7,390.1,497.8L390.1,497.8
	L390.1,497.8z"/>
<path d="M413.7,515.1v-4.3l4.4-4.1c8.7-8.1,12.9-12.5,12.9-17.4c0-3.4-1.8-6.2-6.6-6.2c-3.3,0-6.1,1.7-7.9,3.1l-2.1-5
	c2.7-2.1,6.7-3.8,11.4-3.8c8.2,0,12.3,5.2,12.3,11.2c0,6.5-4.7,11.8-11.2,17.8l-3.2,2.8v0.1h15.2v5.8L413.7,515.1L413.7,515.1z"/>
<path d="M470.5,496.3c0,12-4.7,19.4-13.6,19.4s-13.1-7.8-13.2-19.1c0-11.5,4.9-19.3,13.6-19.3S470.5,485.4,470.5,496.3L470.5,496.3z
	 M450.8,496.7c0,9,2.5,13.7,6.3,13.7c4.2,0,6.3-5,6.3-13.9s-2-13.7-6.3-13.7C453.4,482.8,450.8,487.4,450.8,496.7L450.8,496.7z"/>
<path d="M474.9,515.1v-4.3l4.4-4.1c8.7-8.1,12.9-12.5,12.9-17.4c0-3.4-1.8-6.2-6.6-6.2c-3.3,0-6.1,1.7-7.9,3.1l-2.1-5
	c2.7-2.1,6.7-3.8,11.4-3.8c8.2,0,12.3,5.2,12.3,11.2c0,6.5-4.7,11.8-11.2,17.8l-3.2,2.8v0.1H500v5.8L474.9,515.1L474.9,515.1z"/>
<path d="M506.9,507.9c1.5,0.9,4.9,2.3,8.5,2.3c5.4,0,7.5-3,7.5-6c0-4.4-4.2-6.3-8.4-6.3h-3.2v-5.1h3.1c3.2,0,7.3-1.5,7.3-5.2
	c0-2.6-1.8-4.6-5.9-4.6c-3,0-6,1.3-7.6,2.3l-1.6-5.1c2.1-1.4,6.2-2.8,10.7-2.8c7.7,0,11.6,4.2,11.6,9.1c0,3.9-2.3,7-6.8,8.7v0.1
	c4.5,0.8,8.1,4.2,8.1,9.2c0,6.3-5.3,11.2-14.4,11.2c-4.5,0-8.4-1.3-10.4-2.6L506.9,507.9L506.9,507.9z"/>
</svg>
