<?xml version="1.0" encoding="UTF-8"?><svg id="Layer_1" xmlns="http://www.w3.org/2000/svg" viewBox="0 0 804 359.84"><path d="m183.12,0c-3.95,6.09-8.6,12-13.96,17.73-11.68,12.5-25.83,23.3-40.62,33.38-5.61-3.72-11.26-7.35-16.89-10.96-.2-.12-.39-.24-.59-.37C129.53,27.59,146.63,15.04,159.28,0h23.84Z"/><path d="m189.29,359.82h-22.02c-12.87-20.11-33.59-35.64-56.32-50.66-5.12-3.39-10.35-6.74-15.61-10.12l-.04-.02s-.38-.26-.53-.34c-2.09-1.35-4.21-2.7-6.34-4.07-.72-.46-1.43-.92-2.14-1.38-1.24-.81-2.47-1.6-3.71-2.41-.75-.48-1.49-.97-2.24-1.46-.75-.49-1.49-.98-2.23-1.47l-2.5-1.66c-16.28-10.89-32.01-22.53-44.78-36.2C10.09,227.8,0,203.11,0,174.51s10.09-53.29,30.83-75.49c11.68-12.5,25.83-23.3,40.62-33.38,5.61,3.72,11.26,7.35,16.89,10.96.2.12.39.24.59.37-37.7,24.93-69.78,51.26-69.78,97.55s32.16,72.69,69.91,97.64c5.12,3.39,10.35,6.74,15.61,10.12l.04.02s.38.26.53.34c1.39.89,2.79,1.8,4.2,2.7,1.36.87,2.73,1.76,4.11,2.64,2.78,1.8,5.58,3.62,8.34,5.46l2.5,1.66c16.28,10.89,32.01,22.53,44.78,36.2,8.46,9.06,15.15,18.54,20.12,28.52h.01Z"/><path d="m93.81,101.22l-.04-2.61v-10.29l-.8,3.55v3.55s-.8,0-.8,1.42.8,1.42.8,1.42l-.8,3.55-.8,1.42v1.42s-2.37,1.42-2.37,4.26c0,2.29-.06,5.26-.09,6.34,0,.23-.21.4-.46.4h-1.1l-2.3,2.48h.95c.34,0,.62.26.62.56v11.5s-2.37,0-3.16,1.42v2.13s-.8,0-.8.71.8.71.8.71v1.42s-26.04,8.51-27.62,29.78c0,0-1.58.71-1.58,1.42v14.19l-11.44,2.48v39.71l6.69,5.27s31.72,25.32,49.82,36.2l2.78,1.66c.82.49,1.65.98,2.48,1.47s1.65.98,2.5,1.46c1.37.81,2.74,1.61,4.12,2.41.8.46,1.59.92,2.39,1.38,2.37,1.37,4.72,2.74,7.06,4.07.16.09.64.37.64.37l20.27-11.04c-1.53-.88-3.06-1.77-4.57-2.64-1.57-.91-3.12-1.81-4.67-2.7-.17-.09-.59-.34-.59-.34l-.05-.02c-5.86-3.38-11.67-6.74-17.37-10.12-14.1-8.38-27.52-16.92-39.1-26.31-2.89-2.35-5.66-4.75-8.32-7.2l.1-27.17c2.37-.71,12.54-11.06,12.54-11.06-.02-10.24-.04-15.37,0-16.32.27-6.59,1.58-21.28,11.04-28.36v-18.8l.64-1.35h.88l.07-6.8s0-2.84.8-3.55v-2.05"/><path d="m176.04,109.03h-78.25c.12-3.25-1.97-4.38-1.97-4.38v-1.42l-.71-1.42-.71-3.55s.71,0,.71-1.42-.71-1.42-.71-1.42v-3.55l-.29-2.13,62.37-.78c5.25,4.51,9.12,8.98,12.77,12.89,2.41,2.59,4.68,4.51,6.8,7.17h0Z"/><path d="m198.89,159.9h-71.94c-2.21-8.93-8.37-15.17-13.91-19.15h81.2c2.15,6.18,3.69,12.55,4.64,19.15h.01Z"/><path d="m196.85,192.32c-.93,6.59-2.45,12.98-4.55,19.15h-52.86v-19.15h57.41Z"/><path d="m162.84,243.9c-1.04,2.54-2.15,5.05-3.31,7.52-1.92,4.05-3.95,7.91-6.09,11.62h-9.1v-19.15h18.52-.01Z"/><path d="m88.92,309.25c-22.69,15-43.35,30.52-56.19,50.58H10.73c4.95-9.98,11.64-19.46,20.12-28.52,11.68-12.5,25.83-23.3,40.62-33.38,5.61,3.72,11.25,7.34,16.85,10.93.21.12.4.26.61.39h-.01Z"/><path d="m200,174.51c0,5.61-.39,11.07-1.17,16.39-.97,6.59-2.53,12.98-4.72,19.15-4.02,11.42-10.14,22.19-18.4,32.42-2.05,2.54-4.23,5.05-6.54,7.52-3.78,4.05-7.8,7.91-12.04,11.62-8.86,7.79-18.58,14.93-28.58,21.76-5.61-3.72-11.25-7.34-16.85-10.93-.21-.12-.4-.26-.61-.39,5.19-3.44,10.29-6.9,15.19-10.43,8.45-6.08,16.37-12.38,23.42-19.15,10.02-9.63,18.29-20.19,23.78-32.42,2.68-5.96,4.7-12.32,5.94-19.15.94-5.17,1.44-10.63,1.44-16.39s-.48-10.96-1.37-16.03c-1.21-6.82-3.2-13.19-5.85-19.15-5.43-12.23-13.61-22.8-23.57-32.42-7.01-6.78-14.89-13.07-23.29-19.15-10.09-7.29-20.94-14.26-31.94-21.32-22.74-14.57-46.25-29.66-64.02-48.68C25.48,12,20.83,6.09,16.88,0h23.83c16.32,19.4,40.02,34.61,64.46,50.32,18.05,11.6,36.6,23.5,52.36,37.44,4.09,3.61,7.99,7.35,11.64,11.26,2.42,2.59,4.7,5.22,6.82,7.88,8.19,10.24,14.26,21,18.24,32.42,2.15,6.18,3.71,12.55,4.65,19.15.75,5.21,1.13,10.54,1.13,16.03h0Z"/><rect x="300.3" y="256.98" width="27.09" height="3.35"/><rect x="281.22" y="267.55" width="3.35" height="14.19"/><rect x="270.38" y="267.55" width="10.83" height="3.35"/><rect x="300.3" y="277.36" width="27.09" height="3.61"/><rect x="300.3" y="236.6" width="27.09" height="3.61"/><polygon points="411.74 283.55 411.74 293.09 223.95 293.09 223.95 289.48 407.98 289.48 407.98 283.55 411.74 283.55"/><polyline points="712 289.48 712 293.09 415.35 293.09 415.35 283.55 418.96 283.55 418.96 289.48 712 289.48"/><rect x="414.06" y="272.71" width="6.19" height="3.61" transform="translate(142.64 691.68) rotate(-90)"/><rect x="406.84" y="272.71" width="6.19" height="3.61" transform="translate(135.42 684.45) rotate(-90)"/><path d="m411.74,282.7c-.78-.56-1.29-1.48-1.29-2.51s.51-1.95,1.29-2.51v-3.95c-2.82.79-4.9,3.39-4.9,6.46s2.08,5.67,4.9,6.46v-3.95Z"/><path d="m415.35,273.73v3.95c.78.56,1.29,1.48,1.29,2.51s-.51,1.95-1.29,2.51v3.95c2.82-.79,4.9-3.39,4.9-6.46s-2.08-5.67-4.9-6.46Z"/><path d="m413.55,234.02c-10.81,0-19.6,8.79-19.6,19.6,0,10.2,7.83,18.6,17.8,19.52v-3.63c-7.97-.9-14.19-7.68-14.19-15.89,0-8.82,7.17-15.99,15.99-15.99s15.99,7.17,15.99,15.99c0,8.21-6.22,14.99-14.19,15.89v3.63c9.97-.91,17.8-9.32,17.8-19.52,0-10.81-8.79-19.6-19.6-19.6Z"/><path d="m374.6,236.86v33.15c0,1.31.08,2.9.24,4.77h-.18c-.64-1.13-1.24-2.1-1.8-2.93l-8.58-12.31v6.45l10.47,14.98h3.72v-44.11h-3.87Z"/><path d="m358.6,257.99v-6.36l-10.43-14.77h-4.02v44.11h3.87v-34.84c0-1.64-.04-2.81-.12-3.49l1.81,2.77,8.89,12.58Z"/><path d="m469.65,258.81c-1.26-1.24-2.77-1.96-4.39-1.96h-1.55v3.5h1.55c2.42,0,4.39,3.8,4.39,8.5s-1.96,8.5-4.39,8.5h-16.51v3.5h16.51c1.62,0,3.13-.72,4.39-1.96.45-.45.88-.96,1.26-1.53,1.45-2.17,2.35-5.18,2.35-8.5s-.9-6.33-2.35-8.5c-.38-.57-.8-1.09-1.26-1.53Z"/><path d="m456.75,236.6c-1.62,0-3.13.71-4.39,1.94-.46.45-.9.97-1.28,1.56-1.44,2.15-2.33,5.1-2.33,8.37s.89,6.23,2.33,8.37c.39.58.82,1.1,1.28,1.56,1.26,1.23,2.77,1.94,4.39,1.94h1.29v-3.5h-1.29c-2.42,0-4.39-3.75-4.39-8.37s1.96-8.37,4.39-8.37h16.51v-3.5h-16.51Z"/><polygon points="554.65 256.64 554.65 236.86 558.52 236.86 558.52 252.77 554.65 256.64"/><polygon points="558.52 260.8 558.52 280.97 554.65 280.97 554.65 264.67 558.52 260.8"/><polygon points="692.14 236.86 692.14 256.72 673.31 256.72 673.31 260.07 692.14 260.07 692.14 280.97 696.01 280.97 696.01 236.86 692.14 236.86"/><polygon points="667.63 260.07 667.63 256.72 667.63 236.86 663.76 236.86 663.76 280.97 667.63 280.97 667.63 260.07"/><polygon points="589.99 240.21 602.63 240.21 602.63 236.6 573.22 236.6 573.22 240.21 586.12 240.21 589.99 240.21"/><rect x="586.12" y="245.88" width="3.87" height="35.08"/><path d="m626.85,275.87c-2.57-1.56-4.55-3.79-5.95-6.69-1.04-2.14-1.69-4.49-1.96-7.05h-4.04c.27,3.27,1.1,6.26,2.48,8.96,1.72,3.37,4.16,5.98,7.31,7.83,3.15,1.85,6.72,2.78,10.73,2.78,4.23,0,8.09-.78,11.57-2.34v-3.76c-3.29,1.74-7.02,2.62-11.18,2.62-3.41,0-6.39-.78-8.96-2.34Z"/><path d="m636.95,235.95c-4.25,0-8.05.99-11.41,2.96-3.36,1.97-5.99,4.78-7.89,8.4-1.45,2.76-2.35,5.81-2.69,9.15h3.98c.28-2.73.96-5.21,2.05-7.46,1.46-3.03,3.58-5.38,6.34-7.05,2.77-1.67,5.95-2.51,9.56-2.51s6.89.77,10.1,2.31v-4.09c-3.07-1.14-6.41-1.71-10.04-1.71Z"/><polygon points="536.59 236.73 536.46 237.15 524.85 274.96 524.85 275.38 524.79 275.17 515.07 243.52 513.17 249.69 522.66 280.84 526.92 280.84 536.46 249.75 540.33 237.15 540.33 236.73 536.59 236.73"/><polygon points="501.12 274.56 501.12 274.54 489.51 236.73 485.65 236.73 499.19 280.83 501.12 274.56"/><path d="m263.55,278.13c-10.25,0-18.73-7.65-20.06-17.54h-3.64c1.35,11.9,11.44,21.15,23.71,21.15,7.9,0,14.9-3.84,19.24-9.75l-2.97-2.07c-3.69,4.98-9.61,8.21-16.27,8.21Z"/><path d="m243.52,254.91c1.44-9.76,9.87-17.28,20.03-17.28,7.11,0,13.37,3.68,16.98,9.24l2.99-2.05c-4.26-6.5-11.61-10.8-19.97-10.8-12.17,0-22.22,9.12-23.68,20.89h3.65Z"/><path d="m277.81,128.49c-3.45,1.67-10.34,3.44-19.14,3.44-16.51,0-32.28-9.78-32.28-30.48,0-15.5,11.78-31.01,34.73-31.01,9.25,0,14.41,2.02,16.51,2.99l-1.45,3.61c-3.63-1.77-9.07-2.99-14.78-2.99-19.86,0-30.37,11.72-30.37,27.74,0,14.63,10.07,26.42,29.29,26.42,5.99,0,11.97-1.14,16.14-3.17l1.36,3.44h0Z"/><path d="m294.87,76.08c0,1.94-1.45,3.79-3.81,3.79-2.08,0-3.53-1.85-3.53-3.79s1.63-3.79,3.71-3.79,3.63,1.77,3.63,3.79Zm-5.89,54.79v-42.28h4.44v42.28h-4.44Z"/><path d="m315.62,76v12.59h13.78v3.44h-13.78v27.04c0,5.2,1.63,9.16,6.98,9.16,2.63,0,4.44-.36,5.71-.8l.55,3.35c-1.55.61-3.81,1.14-6.71,1.14-3.45,0-6.26-1.06-8.07-3.17-2.18-2.38-2.9-6.26-2.9-10.22v-26.52h-7.97v-3.44h7.97v-11.28l4.44-1.32v.02Z"/><path d="m338.65,88.6l12.96,28.27c1.27,2.74,2.72,6.26,3.53,8.9h.18c1-2.64,2.18-5.82,3.63-9.25l12.15-27.93h4.81l-15.41,34.17c-5.99,13.39-9.88,19.99-15.69,24.05-3.71,2.64-7.07,3.61-7.97,3.79l-1.18-3.61c2.18-.61,5.26-1.85,7.97-4.14,2.26-1.85,5.62-5.37,8.34-11.36.36-.8.55-1.32.55-1.67s-.18-.97-.63-1.94l-18.04-39.29h4.81,0Z"/><path d="m448.01,109.2c0,15.85-12.7,22.72-23.4,22.72-12.96,0-22.4-9.25-22.4-21.76,0-14.1,10.88-22.64,23.03-22.64,13.96,0,22.76,9.6,22.76,21.67Zm-41.34.7c0,11.8,8.79,18.49,18.22,18.49s18.67-6.78,18.67-18.93c0-8.01-5.53-18.41-18.32-18.41s-18.59,8.98-18.59,18.85h0Z"/><path d="m459.89,130.87v-38.85h-6.62v-3.44h6.62v-2.02c0-7.23,1.55-12.59,5.26-16.03,2.72-2.47,6.34-3.79,10.34-3.79,3.08,0,5.81.8,7.16,1.58l-1.45,3.35c-1.36-.7-3.18-1.32-6.07-1.32-8.89,0-10.79,7.57-10.79,16.12v2.11h12.78v3.44h-12.78v38.85h-4.44Z"/><path d="m507.49,71.51h4.44v55.76h30.29v3.61h-34.73v-59.36h0Z"/><path d="m592.27,109.2c0,15.85-12.7,22.72-23.4,22.72-12.96,0-22.4-9.25-22.4-21.76,0-14.1,10.88-22.64,23.03-22.64,13.96,0,22.75,9.6,22.75,21.67h0Zm-41.34.7c0,11.8,8.8,18.49,18.22,18.49s18.67-6.78,18.67-18.93c0-8.01-5.53-18.41-18.31-18.41s-18.59,8.98-18.59,18.85Z"/><path d="m604.15,98.81c0-3.44-.09-6.78-.36-10.22h4.17l.36,8.45h.18c2.63-5.2,8.8-9.51,16.77-9.51,3.99,0,16.96,1.76,16.96,19.29v24.05h-4.44v-24.05c0-8.28-3.71-15.59-13.69-15.59-6.99,0-12.78,4.66-14.78,10.04-.36.97-.73,2.47-.73,3.79v25.81h-4.44v-32.06h0Z"/><path d="m696.37,67.81v52.85c0,3.44.09,6.78.36,10.22h-4.08l-.27-8.81h-.18c-2.54,5.29-8.52,9.87-17.59,9.87-12.24,0-20.95-9.51-20.95-21.23-.09-13.74,9.7-23.17,21.95-23.17,9.07,0,14.23,4.66,16.14,8.1h.18v-27.83h4.44,0Zm-4.44,37.78c0-1.23-.18-2.91-.55-4.14-1.9-5.73-7.52-10.39-15.68-10.39-10.34,0-17.59,7.67-17.59,19.12,0,9.51,5.71,18.23,17.5,18.23,7.44,0,13.96-4.93,15.78-11.62.36-1.14.55-2.29.55-3.7v-7.49h0Z"/><path d="m754.03,109.2c0,15.85-12.7,22.72-23.4,22.72-12.96,0-22.4-9.25-22.4-21.76,0-14.1,10.88-22.64,23.03-22.64,13.96,0,22.75,9.6,22.75,21.67h0Zm-41.34.7c0,11.8,8.8,18.49,18.22,18.49s18.67-6.78,18.67-18.93c0-8.01-5.53-18.41-18.31-18.41s-18.59,8.98-18.59,18.85Z"/><path d="m765.91,98.81c0-3.44-.09-6.78-.36-10.22h4.17l.36,8.45h.18c2.63-5.2,8.8-9.51,16.77-9.51,3.99,0,16.96,1.76,16.96,19.29v24.05h-4.44v-24.05c0-8.28-3.71-15.59-13.69-15.59-6.99,0-12.78,4.66-14.78,10.04-.36.97-.73,2.47-.73,3.79v25.81h-4.44v-32.06h0Z"/><path d="m235.39,166.4c0-2.37,1.91-4.22,4.51-4.22s4.51,1.74,4.51,4.05c0,2.48-1.86,4.4-4.51,4.4s-4.51-1.86-4.51-4.22h0Zm.96,9.18h7.04v30.09h-7.04v-30.09Z"/><path d="m280.24,185.5h6.92v15.71c-4.11,3.33-9.86,5.01-15.44,5.01-12.23,0-21.24-8.51-21.24-20.28s9.02-20.28,21.35-20.28c6.59,0,12.12,2.2,15.83,6.42l-4.62,4.51c-3.1-3.1-6.65-4.51-10.88-4.51-8.39,0-14.32,5.69-14.32,13.86s5.91,13.86,14.26,13.86c2.81,0,5.58-.56,8.11-2.03v-12.29h.03Z"/><path d="m326.38,199.53v6.14h-29.57v-39.44h28.79v6.14h-21.47v10.25h19.04v6.02h-19.04v10.88h22.25Z"/><path d="m370.79,205.67l-.06-26.15-12.96,21.64h-3.27l-12.96-21.3v25.81h-6.99v-39.44h6.02l15.66,26.15,15.39-26.15h6.02l.06,39.44h-6.94.03Z"/><path d="m411.91,172.43h-13.07v-6.19h33.47v6.19h-13.07v33.24h-7.32v-33.24Z"/><path d="m462.22,192.88h-23.61c.84,4.4,4.51,7.21,9.75,7.21,3.38,0,6.02-1.07,8.16-3.27l3.77,4.34c-2.7,3.21-6.92,4.9-12.12,4.9-10.09,0-16.63-6.48-16.63-15.44s6.59-15.39,15.56-15.39,15.22,6.14,15.22,15.56c0,.56-.06,1.41-.11,2.08h.01Zm-23.66-4.68h17.07c-.56-4.34-3.88-7.32-8.51-7.32s-7.89,2.93-8.56,7.32Z"/><path d="m493.43,188.04v17.64h-6.65v-3.67c-1.68,2.6-4.95,4.05-9.46,4.05-6.88,0-11.22-3.77-11.22-9.02s3.38-8.96,12.5-8.96h7.78v-.46c0-4.11-2.48-6.54-7.49-6.54-3.38,0-6.88,1.13-9.13,2.98l-2.75-5.12c3.21-2.48,7.89-3.73,12.73-3.73,8.68,0,13.69,4.11,13.69,12.79v.03Zm-7.04,8.22v-3.5h-7.26c-4.8,0-6.08,1.8-6.08,4,0,2.54,2.14,4.17,5.75,4.17s6.42-1.58,7.61-4.68h-.01Z"/><path d="m552.77,188.44v17.24h-7.04v-16.34c0-5.35-2.48-7.95-6.77-7.95-4.62,0-7.84,3.04-7.84,9.02v15.27h-7.04v-16.34c0-5.35-2.48-7.95-6.77-7.95-4.68,0-7.84,3.04-7.84,9.02v15.27h-7.04v-30.09h6.71v3.83c2.26-2.7,5.75-4.17,9.86-4.17,4.4,0,8.05,1.63,10.15,5.01,2.43-3.1,6.48-5.01,11.26-5.01,7.26,0,12.33,4.11,12.33,13.19h0Z"/><path d="m576.38,205.81v-4.27l4.4-4.09c8.73-8.08,12.85-12.53,12.9-17.43,0-3.35-1.78-6.25-6.63-6.25-3.28,0-6.07,1.67-7.92,3.09l-2.06-4.99c2.67-2.13,6.73-3.8,11.39-3.8,8.23,0,12.26,5.17,12.26,11.24,0,6.53-4.69,11.77-11.18,17.76l-3.21,2.82v.11h15.21v5.81h-25.15Z"/><path d="m633.18,187c0,11.96-4.67,19.44-13.57,19.44s-13.09-7.79-13.16-19.08c0-11.54,4.91-19.29,13.58-19.29s13.15,8.02,13.15,18.93Zm-19.68.35c-.02,9.05,2.46,13.73,6.34,13.73,4.16,0,6.29-5.03,6.29-13.92s-2.03-13.71-6.28-13.71c-3.72,0-6.35,4.62-6.34,13.89Z"/><path d="m637.58,205.81v-4.27l4.4-4.09c8.73-8.08,12.85-12.53,12.9-17.43,0-3.35-1.78-6.25-6.63-6.25-3.28,0-6.07,1.67-7.92,3.09l-2.06-4.99c2.67-2.13,6.73-3.8,11.39-3.8,8.23,0,12.26,5.17,12.26,11.24,0,6.53-4.69,11.77-11.18,17.76l-3.21,2.82v.11h15.21v5.81h-25.15Z"/><path d="m669.57,198.56c1.47.85,4.93,2.28,8.46,2.28,5.36,0,7.53-3.03,7.51-5.95-.04-4.37-4.15-6.28-8.44-6.29h-3.21v-5.12h3.13c3.24,0,7.34-1.47,7.34-5.16,0-2.56-1.84-4.65-5.94-4.65-3,0-6.05,1.31-7.59,2.32l-1.59-5.08c2.11-1.44,6.24-2.84,10.69-2.84,7.67,0,11.58,4.24,11.58,9.08,0,3.87-2.29,7.05-6.81,8.67v.11c4.5.83,8.13,4.24,8.13,9.25,0,6.27-5.27,11.25-14.44,11.25-4.52,0-8.39-1.26-10.38-2.57l1.57-5.31Z"/></svg>