<?xml version="1.0" encoding="utf-8"?>
<!-- Generator: Adobe Illustrator 27.6.1, SVG Export Plug-In . SVG Version: 6.00 Build 0)  -->
<svg version="1.1" id="Layer_1" xmlns="http://www.w3.org/2000/svg" xmlns:xlink="http://www.w3.org/1999/xlink" x="0px" y="0px"
	 viewBox="0 0 488.1 59.2" style="enable-background:new 0 0 488.1 59.2;" xml:space="preserve">
<rect x="76.4" y="23.1" width="27.1" height="3.4"/>
<rect x="57.3" y="33.6" width="3.4" height="14.2"/>
<rect x="46.5" y="33.6" width="10.8" height="3.4"/>
<rect x="76.4" y="43.5" width="27.1" height="3.6"/>
<rect x="76.4" y="2.7" width="27.1" height="3.6"/>
<polygon points="187.8,49.6 187.8,59.2 0,59.2 0,55.6 184.1,55.6 184.1,49.6 "/>
<polyline points="488.1,55.6 488.1,59.2 191.5,59.2 191.5,49.6 195.1,49.6 195.1,55.6 488.1,55.6 "/>
<rect x="191.4" y="37.5" width="3.6" height="6.2"/>
<rect x="184.2" y="37.5" width="3.6" height="6.2"/>
<path d="M187.8,48.8c-0.8-0.6-1.3-1.5-1.3-2.5s0.5-2,1.3-2.5v-4c-2.8,0.8-4.9,3.4-4.9,6.5s2.1,5.7,4.9,6.5V48.8L187.8,48.8z"/>
<path d="M191.5,39.8v4c0.8,0.6,1.3,1.5,1.3,2.5s-0.5,2-1.3,2.5v4c2.8-0.8,4.9-3.4,4.9-6.5S194.3,40.6,191.5,39.8L191.5,39.8z"/>
<path d="M189.6,0.1c-10.8,0-19.6,8.8-19.6,19.6c0,10.2,7.8,18.6,17.8,19.5v-3.6c-8-0.9-14.2-7.7-14.2-15.9c0-8.8,7.2-16,16-16
	s16,7.2,16,16c0,8.2-6.2,15-14.2,15.9v3.6c10-0.9,17.8-9.3,17.8-19.5C209.2,8.9,200.5,0.1,189.6,0.1C189.6,0.1,189.6,0.1,189.6,0.1z
	"/>
<path d="M150.7,3v33.1c0,1.3,0.1,2.9,0.2,4.8h-0.2c-0.6-1.1-1.2-2.1-1.8-2.9l-8.6-12.3v6.5l10.5,15h3.7V3.1L150.7,3L150.7,3L150.7,3
	z"/>
<path d="M134.7,24.1v-6.4L124.3,2.9h-4v44.2h3.9V12.3c0-1.6,0-2.8-0.1-3.5l1.8,2.8L134.7,24.1L134.7,24.1z"/>
<path d="M245.7,24.9c-1.3-1.2-2.8-2-4.4-2h-1.5v3.5h1.5c2.4,0,4.4,3.8,4.4,8.5s-2,8.5-4.4,8.5h-16.5v3.5h16.5c1.6,0,3.1-0.7,4.4-2
	c0.5-0.5,0.9-1,1.3-1.5c1.5-2.2,2.4-5.2,2.4-8.5s-0.9-6.3-2.4-8.5C246.6,25.9,246.2,25.4,245.7,24.9
	C245.7,24.9,245.7,24.9,245.7,24.9z"/>
<path d="M232.9,2.7c-1.6,0-3.1,0.7-4.4,1.9c-0.5,0.4-0.9,1-1.3,1.6c-1.4,2.1-2.3,5.1-2.3,8.4s0.9,6.2,2.3,8.4
	c0.4,0.6,0.8,1.1,1.3,1.6c1.3,1.2,2.8,1.9,4.4,1.9h1.3V23h-1.3c-2.4,0-4.4-3.8-4.4-8.4s2-8.4,4.4-8.4h16.5V2.7
	C249.4,2.7,232.9,2.7,232.9,2.7z"/>
<polygon points="330.8,22.7 330.8,3 334.6,3 334.6,18.9 "/>
<polygon points="334.6,26.9 334.6,47.1 330.8,47.1 330.8,30.8 "/>
<polygon points="468.2,3 468.2,22.8 449.4,22.8 449.4,26.2 468.2,26.2 468.2,47.1 472.1,47.1 472.1,3 "/>
<polygon points="443.7,26.2 443.7,22.8 443.7,3 439.9,3 439.9,47.1 443.7,47.1 "/>
<polygon points="366.1,6.3 378.7,6.3 378.7,2.7 349.3,2.7 349.3,6.3 362.2,6.3 "/>
<rect x="362.2" y="12" width="3.9" height="35.1"/>
<path d="M402.9,42c-2.6-1.6-4.5-3.8-6-6.7c-1-2.1-1.7-4.5-2-7h-4c0.3,3.3,1.1,6.3,2.5,9c1.7,3.4,4.2,6,7.3,7.8
	c3.2,1.9,6.7,2.8,10.7,2.8c4.2,0,8.1-0.8,11.6-2.3v-3.8c-3.3,1.7-7,2.6-11.2,2.6C408.5,44.3,405.5,43.5,402.9,42
	C402.9,42,402.9,42,402.9,42z"/>
<path d="M413.1,2c-4.2,0-8,1-11.4,3s-6,4.8-7.9,8.4c-1.5,2.8-2.3,5.8-2.7,9.1h4c0.3-2.7,1-5.2,2-7.5c1.5-3,3.6-5.4,6.3-7.1
	c2.8-1.7,6-2.5,9.6-2.5s6.9,0.8,10.1,2.3V3.6C420,2.6,416.7,2,413.1,2C413.1,2,413.1,2,413.1,2z"/>
<polygon points="312.7,2.8 312.6,3.2 300.9,41.1 300.9,41.5 300.9,41.3 291.2,9.6 289.3,15.8 298.8,46.9 303,46.9 312.6,15.9 
	316.4,3.2 316.4,2.8 "/>
<polygon points="277.2,40.7 277.2,40.6 265.6,2.8 261.7,2.8 275.3,46.9 "/>
<path d="M39.6,44.2c-10.2,0-18.7-7.6-20.1-17.5h-3.6c1.4,11.9,11.4,21.1,23.7,21.1c7.9,0,14.9-3.8,19.2-9.8l-3-2.1
	C52.2,41,46.3,44.2,39.6,44.2C39.6,44.2,39.6,44.2,39.6,44.2z"/>
<path d="M19.6,21c1.4-9.8,9.9-17.3,20-17.3c7.1,0,13.4,3.7,17,9.2l3-2.1C55.3,4.3,48,0,39.6,0C27.4,0,17.4,9.1,15.9,20.9h3.7
	C19.6,20.9,19.6,21,19.6,21z"/>
</svg>
