<?xml version="1.0" encoding="utf-8"?>
<!-- Generator: Adobe Illustrator 27.6.1, SVG Export Plug-In . SVG Version: 6.00 Build 0)  -->
<svg version="1.1" id="Layer_1" xmlns="http://www.w3.org/2000/svg" xmlns:xlink="http://www.w3.org/1999/xlink" x="0px" y="0px"
	 viewBox="0 0 804 359.8" style="enable-background:new 0 0 804 359.8;" xml:space="preserve">
<style type="text/css">
	.st0{fill:#FFFFFF;}
</style>
<path class="st0" d="M183.1,0c-3.9,6.1-8.6,12-14,17.7c-11.7,12.5-25.8,23.3-40.6,33.4c-5.6-3.7-11.3-7.3-16.9-11
	c-0.2-0.1-0.4-0.2-0.6-0.4C129.5,27.6,146.6,15,159.3,0H183.1z"/>
<path class="st0" d="M189.3,359.8h-22c-12.9-20.1-33.6-35.6-56.3-50.7c-5.1-3.4-10.3-6.7-15.6-10.1l0,0c0,0-0.4-0.3-0.5-0.3
	c-2.1-1.4-4.2-2.7-6.3-4.1c-0.7-0.5-1.4-0.9-2.1-1.4c-1.2-0.8-2.5-1.6-3.7-2.4c-0.8-0.5-1.5-1-2.2-1.5s-1.5-1-2.2-1.5l-2.5-1.7
	c-16.3-10.9-32-22.5-44.8-36.2C10.1,227.8,0,203.1,0,174.5S10.1,121.2,30.8,99c11.7-12.5,25.8-23.3,40.6-33.4
	c5.6,3.7,11.3,7.3,16.9,11c0.2,0.1,0.4,0.2,0.6,0.4c-37.7,24.9-69.8,51.3-69.8,97.6s32.2,72.7,69.9,97.6c5.1,3.4,10.3,6.7,15.6,10.1
	l0,0c0,0,0.4,0.3,0.5,0.3c1.4,0.9,2.8,1.8,4.2,2.7c1.4,0.9,2.7,1.8,4.1,2.6c2.8,1.8,5.6,3.6,8.3,5.5l2.5,1.7
	c16.3,10.9,32,22.5,44.8,36.2C177.6,340.4,184.3,349.8,189.3,359.8L189.3,359.8L189.3,359.8z"/>
<path class="st0" d="M93.8,101.2l0-2.6V88.3L93,91.9v3.6c0,0-0.8,0-0.8,1.4s0.8,1.4,0.8,1.4l-0.8,3.6l-0.8,1.4v1.4
	c0,0-2.4,1.4-2.4,4.3c0,2.3-0.1,5.3-0.1,6.3c0,0.2-0.2,0.4-0.5,0.4h-1.1l-2.3,2.5H86c0.3,0,0.6,0.3,0.6,0.6v11.5c0,0-2.4,0-3.2,1.4
	v2.1c0,0-0.8,0-0.8,0.7s0.8,0.7,0.8,0.7v1.4c0,0-26,8.5-27.6,29.8c0,0-1.6,0.7-1.6,1.4V182l-11.4,2.5v39.7l6.7,5.3
	c0,0,31.7,25.3,49.8,36.2l2.8,1.7c0.8,0.5,1.7,1,2.5,1.5s1.7,1,2.5,1.5c1.4,0.8,2.7,1.6,4.1,2.4c0.8,0.5,1.6,0.9,2.4,1.4
	c2.4,1.4,4.7,2.7,7.1,4.1c0.2,0.1,0.6,0.4,0.6,0.4l20.3-11c-1.5-0.9-3.1-1.8-4.6-2.6c-1.6-0.9-3.1-1.8-4.7-2.7
	c-0.2-0.1-0.6-0.3-0.6-0.3l-0.1,0c-5.9-3.4-11.7-6.7-17.4-10.1c-14.1-8.4-27.5-16.9-39.1-26.3c-2.9-2.4-5.7-4.8-8.3-7.2l0.1-27.2
	c2.4-0.7,12.5-11.1,12.5-11.1c0-10.2,0-15.4,0-16.3c0.3-6.6,1.6-21.3,11-28.4v-18.8l0.6-1.3h0.9l0.1-6.8c0,0,0-2.8,0.8-3.6v-2.1"/>
<path class="st0" d="M176,109H97.8c0.1-3.2-2-4.4-2-4.4v-1.4l-0.7-1.4l-0.7-3.6c0,0,0.7,0,0.7-1.4s-0.7-1.4-0.7-1.4v-3.6l-0.3-2.1
	l62.4-0.8c5.2,4.5,9.1,9,12.8,12.9C171.7,104.4,173.9,106.4,176,109L176,109L176,109z"/>
<path class="st0" d="M198.9,159.9h-71.9c-2.2-8.9-8.4-15.2-13.9-19.1h81.2C196.4,146.9,197.9,153.3,198.9,159.9L198.9,159.9
	L198.9,159.9z"/>
<path class="st0" d="M196.9,192.3c-0.9,6.6-2.4,13-4.6,19.1h-52.9v-19.1H196.9z"/>
<path class="st0" d="M162.8,243.9c-1,2.5-2.1,5.1-3.3,7.5c-1.9,4.1-3.9,7.9-6.1,11.6h-9.1v-19.1L162.8,243.9L162.8,243.9
	L162.8,243.9z"/>
<path class="st0" d="M88.9,309.2c-22.7,15-43.3,30.5-56.2,50.6h-22c4.9-10,11.6-19.5,20.1-28.5c11.7-12.5,25.8-23.3,40.6-33.4
	c5.6,3.7,11.2,7.3,16.8,10.9C88.5,309,88.7,309.1,88.9,309.2L88.9,309.2L88.9,309.2z"/>
<path class="st0" d="M200,174.5c0,5.6-0.4,11.1-1.2,16.4c-1,6.6-2.5,13-4.7,19.1c-4,11.4-10.1,22.2-18.4,32.4
	c-2.1,2.5-4.2,5.1-6.5,7.5c-3.8,4.1-7.8,7.9-12,11.6c-8.9,7.8-18.6,14.9-28.6,21.8c-5.6-3.7-11.2-7.3-16.8-10.9
	c-0.2-0.1-0.4-0.3-0.6-0.4c5.2-3.4,10.3-6.9,15.2-10.4c8.5-6.1,16.4-12.4,23.4-19.1c10-9.6,18.3-20.2,23.8-32.4
	c2.7-6,4.7-12.3,5.9-19.1c0.9-5.2,1.4-10.6,1.4-16.4s-0.5-11-1.4-16c-1.2-6.8-3.2-13.2-5.9-19.1c-5.4-12.2-13.6-22.8-23.6-32.4
	c-7-6.8-14.9-13.1-23.3-19.2c-10.1-7.3-20.9-14.3-31.9-21.3c-22.7-14.6-46.2-29.7-64-48.7C25.5,12,20.8,6.1,16.9,0h23.8
	c16.3,19.4,40,34.6,64.5,50.3c18.1,11.6,36.6,23.5,52.4,37.4c4.1,3.6,8,7.3,11.6,11.3c2.4,2.6,4.7,5.2,6.8,7.9
	c8.2,10.2,14.3,21,18.2,32.4c2.1,6.2,3.7,12.6,4.6,19.1C199.6,163.7,200,169,200,174.5L200,174.5L200,174.5z"/>
<rect x="300.3" y="257" class="st0" width="27.1" height="3.4"/>
<rect x="281.2" y="267.5" class="st0" width="3.4" height="14.2"/>
<rect x="270.4" y="267.5" class="st0" width="10.8" height="3.4"/>
<rect x="300.3" y="277.4" class="st0" width="27.1" height="3.6"/>
<rect x="300.3" y="236.6" class="st0" width="27.1" height="3.6"/>
<polygon class="st0" points="411.7,283.5 411.7,293.1 223.9,293.1 223.9,289.5 408,289.5 408,283.5 "/>
<polyline class="st0" points="712,289.5 712,293.1 415.4,293.1 415.4,283.5 419,283.5 419,289.5 712,289.5 "/>
<rect x="415.3" y="271.4" class="st0" width="3.6" height="6.2"/>
<rect x="408.1" y="271.4" class="st0" width="3.6" height="6.2"/>
<path class="st0" d="M411.7,282.7c-0.8-0.6-1.3-1.5-1.3-2.5s0.5-2,1.3-2.5v-4c-2.8,0.8-4.9,3.4-4.9,6.5s2.1,5.7,4.9,6.5V282.7
	L411.7,282.7z"/>
<path class="st0" d="M415.4,273.7v4c0.8,0.6,1.3,1.5,1.3,2.5s-0.5,2-1.3,2.5v4c2.8-0.8,4.9-3.4,4.9-6.5S418.2,274.5,415.4,273.7
	L415.4,273.7z"/>
<path class="st0" d="M413.5,234c-10.8,0-19.6,8.8-19.6,19.6c0,10.2,7.8,18.6,17.8,19.5v-3.6c-8-0.9-14.2-7.7-14.2-15.9
	c0-8.8,7.2-16,16-16s16,7.2,16,16c0,8.2-6.2,15-14.2,15.9v3.6c10-0.9,17.8-9.3,17.8-19.5C433.1,242.8,424.4,234,413.5,234L413.5,234
	z"/>
<path class="st0" d="M374.6,236.9V270c0,1.3,0.1,2.9,0.2,4.8h-0.2c-0.6-1.1-1.2-2.1-1.8-2.9l-8.6-12.3v6.5l10.5,15h3.7v-44.1
	L374.6,236.9L374.6,236.9z"/>
<path class="st0" d="M358.6,258v-6.4l-10.4-14.8h-4V281h3.9v-34.8c0-1.6,0-2.8-0.1-3.5l1.8,2.8L358.6,258L358.6,258z"/>
<path class="st0" d="M469.6,258.8c-1.3-1.2-2.8-2-4.4-2h-1.5v3.5h1.5c2.4,0,4.4,3.8,4.4,8.5s-2,8.5-4.4,8.5h-16.5v3.5h16.5
	c1.6,0,3.1-0.7,4.4-2c0.5-0.5,0.9-1,1.3-1.5c1.5-2.2,2.4-5.2,2.4-8.5s-0.9-6.3-2.4-8.5C470.5,259.8,470.1,259.3,469.6,258.8
	L469.6,258.8z"/>
<path class="st0" d="M456.8,236.6c-1.6,0-3.1,0.7-4.4,1.9c-0.5,0.4-0.9,1-1.3,1.6c-1.4,2.1-2.3,5.1-2.3,8.4s0.9,6.2,2.3,8.4
	c0.4,0.6,0.8,1.1,1.3,1.6c1.3,1.2,2.8,1.9,4.4,1.9h1.3v-3.5h-1.3c-2.4,0-4.4-3.8-4.4-8.4s2-8.4,4.4-8.4h16.5v-3.5H456.8z"/>
<polygon class="st0" points="554.7,256.6 554.7,236.9 558.5,236.9 558.5,252.8 "/>
<polygon class="st0" points="558.5,260.8 558.5,281 554.7,281 554.7,264.7 "/>
<polygon class="st0" points="692.1,236.9 692.1,256.7 673.3,256.7 673.3,260.1 692.1,260.1 692.1,281 696,281 696,236.9 "/>
<polygon class="st0" points="667.6,260.1 667.6,256.7 667.6,236.9 663.8,236.9 663.8,281 667.6,281 "/>
<polygon class="st0" points="590,240.2 602.6,240.2 602.6,236.6 573.2,236.6 573.2,240.2 586.1,240.2 "/>
<rect x="586.1" y="245.9" class="st0" width="3.9" height="35.1"/>
<path class="st0" d="M626.8,275.9c-2.6-1.6-4.5-3.8-6-6.7c-1-2.1-1.7-4.5-2-7h-4c0.3,3.3,1.1,6.3,2.5,9c1.7,3.4,4.2,6,7.3,7.8
	c3.2,1.9,6.7,2.8,10.7,2.8c4.2,0,8.1-0.8,11.6-2.3v-3.8c-3.3,1.7-7,2.6-11.2,2.6C632.4,278.2,629.4,277.4,626.8,275.9L626.8,275.9z"
	/>
<path class="st0" d="M637,235.9c-4.2,0-8,1-11.4,3s-6,4.8-7.9,8.4c-1.5,2.8-2.3,5.8-2.7,9.1h4c0.3-2.7,1-5.2,2-7.5
	c1.5-3,3.6-5.4,6.3-7.1c2.8-1.7,6-2.5,9.6-2.5s6.9,0.8,10.1,2.3v-4.1C643.9,236.5,640.6,235.9,637,235.9L637,235.9z"/>
<polygon class="st0" points="536.6,236.7 536.5,237.1 524.8,275 524.8,275.4 524.8,275.2 515.1,243.5 513.2,249.7 522.7,280.8 
	526.9,280.8 536.5,249.8 540.3,237.1 540.3,236.7 "/>
<polygon class="st0" points="501.1,274.6 501.1,274.5 489.5,236.7 485.6,236.7 499.2,280.8 "/>
<path class="st0" d="M263.5,278.1c-10.2,0-18.7-7.6-20.1-17.5h-3.6c1.4,11.9,11.4,21.1,23.7,21.1c7.9,0,14.9-3.8,19.2-9.8l-3-2.1
	C276.1,274.9,270.2,278.1,263.5,278.1L263.5,278.1z"/>
<path class="st0" d="M243.5,254.9c1.4-9.8,9.9-17.3,20-17.3c7.1,0,13.4,3.7,17,9.2l3-2.1c-4.3-6.5-11.6-10.8-20-10.8
	c-12.2,0-22.2,9.1-23.7,20.9H243.5L243.5,254.9z"/>
<path class="st0" d="M277.8,128.5c-3.5,1.7-10.3,3.4-19.1,3.4c-16.5,0-32.3-9.8-32.3-30.5c0-15.5,11.8-31,34.7-31
	c9.2,0,14.4,2,16.5,3l-1.5,3.6c-3.6-1.8-9.1-3-14.8-3c-19.9,0-30.4,11.7-30.4,27.7c0,14.6,10.1,26.4,29.3,26.4c6,0,12-1.1,16.1-3.2
	L277.8,128.5L277.8,128.5L277.8,128.5z"/>
<path class="st0" d="M294.9,76.1c0,1.9-1.5,3.8-3.8,3.8c-2.1,0-3.5-1.8-3.5-3.8s1.6-3.8,3.7-3.8S294.9,74.1,294.9,76.1z M289,130.9
	V88.6h4.4v42.3H289z"/>
<path class="st0" d="M315.6,76v12.6h13.8V92h-13.8v27c0,5.2,1.6,9.2,7,9.2c2.6,0,4.4-0.4,5.7-0.8l0.5,3.4c-1.5,0.6-3.8,1.1-6.7,1.1
	c-3.5,0-6.3-1.1-8.1-3.2c-2.2-2.4-2.9-6.3-2.9-10.2V92h-8v-3.4h8V77.3L315.6,76L315.6,76L315.6,76z"/>
<path class="st0" d="M338.6,88.6l13,28.3c1.3,2.7,2.7,6.3,3.5,8.9h0.2c1-2.6,2.2-5.8,3.6-9.2l12.1-27.9h4.8l-15.4,34.2
	c-6,13.4-9.9,20-15.7,24.1c-3.7,2.6-7.1,3.6-8,3.8l-1.2-3.6c2.2-0.6,5.3-1.9,8-4.1c2.3-1.9,5.6-5.4,8.3-11.4
	c0.4-0.8,0.5-1.3,0.5-1.7s-0.2-1-0.6-1.9l-18-39.3L338.6,88.6L338.6,88.6L338.6,88.6z"/>
<path class="st0" d="M448,109.2c0,15.8-12.7,22.7-23.4,22.7c-13,0-22.4-9.2-22.4-21.8c0-14.1,10.9-22.6,23-22.6
	C439.2,87.5,448,97.1,448,109.2L448,109.2z M406.7,109.9c0,11.8,8.8,18.5,18.2,18.5s18.7-6.8,18.7-18.9c0-8-5.5-18.4-18.3-18.4
	S406.7,100,406.7,109.9L406.7,109.9L406.7,109.9z"/>
<path class="st0" d="M459.9,130.9V92h-6.6v-3.4h6.6v-2c0-7.2,1.5-12.6,5.3-16c2.7-2.5,6.3-3.8,10.3-3.8c3.1,0,5.8,0.8,7.2,1.6
	l-1.5,3.3c-1.4-0.7-3.2-1.3-6.1-1.3c-8.9,0-10.8,7.6-10.8,16.1v2.1h12.8V92h-12.8v38.8H459.9L459.9,130.9z"/>
<path class="st0" d="M507.5,71.5h4.4v55.8h30.3v3.6h-34.7L507.5,71.5L507.5,71.5L507.5,71.5z"/>
<path class="st0" d="M592.3,109.2c0,15.8-12.7,22.7-23.4,22.7c-13,0-22.4-9.2-22.4-21.8c0-14.1,10.9-22.6,23-22.6
	C583.5,87.5,592.2,97.1,592.3,109.2L592.3,109.2L592.3,109.2z M550.9,109.9c0,11.8,8.8,18.5,18.2,18.5s18.7-6.8,18.7-18.9
	c0-8-5.5-18.4-18.3-18.4S550.9,100,550.9,109.9L550.9,109.9z"/>
<path class="st0" d="M604.2,98.8c0-3.4-0.1-6.8-0.4-10.2h4.2l0.4,8.4h0.2c2.6-5.2,8.8-9.5,16.8-9.5c4,0,17,1.8,17,19.3v24.1h-4.4
	v-24.1c0-8.3-3.7-15.6-13.7-15.6c-7,0-12.8,4.7-14.8,10c-0.4,1-0.7,2.5-0.7,3.8v25.8h-4.4V98.8L604.2,98.8z"/>
<path class="st0" d="M696.4,67.8v52.8c0,3.4,0.1,6.8,0.4,10.2h-4.1l-0.3-8.8h-0.2c-2.5,5.3-8.5,9.9-17.6,9.9c-12.2,0-21-9.5-21-21.2
	c-0.1-13.7,9.7-23.2,22-23.2c9.1,0,14.2,4.7,16.1,8.1h0.2V67.8L696.4,67.8L696.4,67.8L696.4,67.8z M691.9,105.6
	c0-1.2-0.2-2.9-0.5-4.1c-1.9-5.7-7.5-10.4-15.7-10.4c-10.3,0-17.6,7.7-17.6,19.1c0,9.5,5.7,18.2,17.5,18.2c7.4,0,14-4.9,15.8-11.6
	c0.4-1.1,0.5-2.3,0.5-3.7L691.9,105.6L691.9,105.6L691.9,105.6z"/>
<path class="st0" d="M754,109.2c0,15.8-12.7,22.7-23.4,22.7c-13,0-22.4-9.2-22.4-21.8c0-14.1,10.9-22.6,23-22.6
	C745.2,87.5,754,97.1,754,109.2L754,109.2L754,109.2z M712.7,109.9c0,11.8,8.8,18.5,18.2,18.5s18.7-6.8,18.7-18.9
	c0-8-5.5-18.4-18.3-18.4S712.7,100,712.7,109.9L712.7,109.9z"/>
<path class="st0" d="M765.9,98.8c0-3.4-0.1-6.8-0.4-10.2h4.2l0.4,8.4h0.2c2.6-5.2,8.8-9.5,16.8-9.5c4,0,17,1.8,17,19.3v24.1h-4.4
	v-24.1c0-8.3-3.7-15.6-13.7-15.6c-7,0-12.8,4.7-14.8,10c-0.4,1-0.7,2.5-0.7,3.8v25.8h-4.4V98.8L765.9,98.8z"/>
<path class="st0" d="M235.4,166.4c0-2.4,1.9-4.2,4.5-4.2s4.5,1.7,4.5,4.1c0,2.5-1.9,4.4-4.5,4.4S235.4,168.8,235.4,166.4
	L235.4,166.4L235.4,166.4z M236.4,175.6h7v30.1h-7V175.6z"/>
<path class="st0" d="M280.2,185.5h6.9v15.7c-4.1,3.3-9.9,5-15.4,5c-12.2,0-21.2-8.5-21.2-20.3s9-20.3,21.3-20.3
	c6.6,0,12.1,2.2,15.8,6.4l-4.6,4.5c-3.1-3.1-6.6-4.5-10.9-4.5c-8.4,0-14.3,5.7-14.3,13.9s5.9,13.9,14.3,13.9c2.8,0,5.6-0.6,8.1-2
	L280.2,185.5L280.2,185.5L280.2,185.5z"/>
<path class="st0" d="M326.4,199.5v6.1h-29.6v-39.4h28.8v6.1h-21.5v10.2h19v6h-19v10.9L326.4,199.5L326.4,199.5z"/>
<path class="st0" d="M370.8,205.7l-0.1-26.1l-13,21.6h-3.3l-13-21.3v25.8h-7v-39.4h6l15.7,26.1l15.4-26.1h6l0.1,39.4H370.8
	L370.8,205.7L370.8,205.7z"/>
<path class="st0" d="M411.9,172.4h-13.1v-6.2h33.5v6.2h-13.1v33.2h-7.3L411.9,172.4L411.9,172.4z"/>
<path class="st0" d="M462.2,192.9h-23.6c0.8,4.4,4.5,7.2,9.8,7.2c3.4,0,6-1.1,8.2-3.3l3.8,4.3c-2.7,3.2-6.9,4.9-12.1,4.9
	c-10.1,0-16.6-6.5-16.6-15.4s6.6-15.4,15.6-15.4s15.2,6.1,15.2,15.6C462.3,191.3,462.3,192.2,462.2,192.9L462.2,192.9L462.2,192.9z
	 M438.6,188.2h17.1c-0.6-4.3-3.9-7.3-8.5-7.3S439.2,183.8,438.6,188.2z"/>
<path class="st0" d="M493.4,188v17.6h-6.6V202c-1.7,2.6-5,4.1-9.5,4.1c-6.9,0-11.2-3.8-11.2-9s3.4-9,12.5-9h7.8v-0.5
	c0-4.1-2.5-6.5-7.5-6.5c-3.4,0-6.9,1.1-9.1,3l-2.8-5.1c3.2-2.5,7.9-3.7,12.7-3.7C488.4,175.2,493.4,179.3,493.4,188L493.4,188
	L493.4,188z M486.4,196.3v-3.5h-7.3c-4.8,0-6.1,1.8-6.1,4c0,2.5,2.1,4.2,5.8,4.2S485.2,199.3,486.4,196.3L486.4,196.3L486.4,196.3z"
	/>
<path class="st0" d="M552.8,188.4v17.2h-7v-16.3c0-5.4-2.5-7.9-6.8-7.9c-4.6,0-7.8,3-7.8,9v15.3h-7v-16.3c0-5.4-2.5-7.9-6.8-7.9
	c-4.7,0-7.8,3-7.8,9v15.3h-7v-30.1h6.7v3.8c2.3-2.7,5.8-4.2,9.9-4.2c4.4,0,8,1.6,10.2,5c2.4-3.1,6.5-5,11.3-5
	C547.7,175.3,552.7,179.4,552.8,188.4L552.8,188.4L552.8,188.4z"/>
<path class="st0" d="M576.4,205.8v-4.3l4.4-4.1c8.7-8.1,12.8-12.5,12.9-17.4c0-3.4-1.8-6.2-6.6-6.2c-3.3,0-6.1,1.7-7.9,3.1l-2.1-5
	c2.7-2.1,6.7-3.8,11.4-3.8c8.2,0,12.3,5.2,12.3,11.2c0,6.5-4.7,11.8-11.2,17.8l-3.2,2.8v0.1h15.2v5.8L576.4,205.8L576.4,205.8z"/>
<path class="st0" d="M633.2,187c0,12-4.7,19.4-13.6,19.4s-13.1-7.8-13.2-19.1c0-11.5,4.9-19.3,13.6-19.3S633.2,176.1,633.2,187
	L633.2,187z M613.5,187.4c0,9.1,2.5,13.7,6.3,13.7c4.2,0,6.3-5,6.3-13.9s-2-13.7-6.3-13.7C616.1,173.4,613.5,178.1,613.5,187.4
	L613.5,187.4z"/>
<path class="st0" d="M637.6,205.8v-4.3l4.4-4.1c8.7-8.1,12.8-12.5,12.9-17.4c0-3.4-1.8-6.2-6.6-6.2c-3.3,0-6.1,1.7-7.9,3.1l-2.1-5
	c2.7-2.1,6.7-3.8,11.4-3.8c8.2,0,12.3,5.2,12.3,11.2c0,6.5-4.7,11.8-11.2,17.8l-3.2,2.8v0.1h15.2v5.8L637.6,205.8L637.6,205.8z"/>
<path class="st0" d="M669.6,198.6c1.5,0.9,4.9,2.3,8.5,2.3c5.4,0,7.5-3,7.5-5.9c0-4.4-4.2-6.3-8.4-6.3h-3.2v-5.1h3.1
	c3.2,0,7.3-1.5,7.3-5.2c0-2.6-1.8-4.6-5.9-4.6c-3,0-6,1.3-7.6,2.3l-1.6-5.1c2.1-1.4,6.2-2.8,10.7-2.8c7.7,0,11.6,4.2,11.6,9.1
	c0,3.9-2.3,7.1-6.8,8.7v0.1c4.5,0.8,8.1,4.2,8.1,9.2c0,6.3-5.3,11.2-14.4,11.2c-4.5,0-8.4-1.3-10.4-2.6L669.6,198.6L669.6,198.6z"/>
</svg>
