<?xml version="1.0" encoding="UTF-8"?><svg id="Layer_1" xmlns="http://www.w3.org/2000/svg" viewBox="0 0 488.1 59.2"><defs><style>.cls-1{fill:#fff;}</style></defs><rect class="cls-1" x="76.4" y="23.1" width="27.1" height="3.4"/><rect class="cls-1" x="57.3" y="33.6" width="3.4" height="14.2"/><rect class="cls-1" x="46.5" y="33.6" width="10.8" height="3.4"/><rect class="cls-1" x="76.4" y="43.5" width="27.1" height="3.6"/><rect class="cls-1" x="76.4" y="2.7" width="27.1" height="3.6"/><polygon class="cls-1" points="187.8 49.6 187.8 59.2 0 59.2 0 55.6 184.1 55.6 184.1 49.6 187.8 49.6"/><polyline class="cls-1" points="488.1 55.6 488.1 59.2 191.5 59.2 191.5 49.6 195.1 49.6 195.1 55.6 488.1 55.6"/><rect class="cls-1" x="191.4" y="37.5" width="3.6" height="6.2"/><rect class="cls-1" x="184.2" y="37.5" width="3.6" height="6.2"/><path class="cls-1" d="m187.8,48.8c-.8-.6-1.3-1.5-1.3-2.5s.5-2,1.3-2.5v-4c-2.8.8-4.9,3.4-4.9,6.5s2.1,5.7,4.9,6.5v-4h0Z"/><path class="cls-1" d="m191.5,39.8v4c.8.6,1.3,1.5,1.3,2.5s-.5,2-1.3,2.5v4c2.8-.8,4.9-3.4,4.9-6.5s-2.1-5.7-4.9-6.5h0Z"/><path class="cls-1" d="m189.6.1c-10.8,0-19.6,8.8-19.6,19.6,0,10.2,7.8,18.6,17.8,19.5v-3.6c-8-.9-14.2-7.7-14.2-15.9,0-8.8,7.2-16,16-16s16,7.2,16,16c0,8.2-6.2,15-14.2,15.9v3.6c10-.9,17.8-9.3,17.8-19.5,0-10.8-8.7-19.6-19.6-19.6h0Z"/><path class="cls-1" d="m150.7,3v33.1c0,1.3.1,2.9.2,4.8h-.2c-.6-1.1-1.2-2.1-1.8-2.9l-8.6-12.3v6.5l10.5,15h3.7V3.1l-3.8-.1h0Z"/><path class="cls-1" d="m134.7,24.1v-6.4l-10.4-14.8h-4v44.2h3.9V12.3c0-1.6,0-2.8-.1-3.5l1.8,2.8,8.8,12.5h0Z"/><path class="cls-1" d="m245.7,24.9c-1.3-1.2-2.8-2-4.4-2h-1.5v3.5h1.5c2.4,0,4.4,3.8,4.4,8.5s-2,8.5-4.4,8.5h-16.5v3.5h16.5c1.6,0,3.1-.7,4.4-2,.5-.5.9-1,1.3-1.5,1.5-2.2,2.4-5.2,2.4-8.5s-.9-6.3-2.4-8.5c-.4-.5-.8-1-1.3-1.5h0Z"/><path class="cls-1" d="m232.9,2.7c-1.6,0-3.1.7-4.4,1.9-.5.4-.9,1-1.3,1.6-1.4,2.1-2.3,5.1-2.3,8.4s.9,6.2,2.3,8.4c.4.6.8,1.1,1.3,1.6,1.3,1.2,2.8,1.9,4.4,1.9h1.3v-3.5h-1.3c-2.4,0-4.4-3.8-4.4-8.4s2-8.4,4.4-8.4h16.5v-3.5h-16.5Z"/><polygon class="cls-1" points="330.8 22.7 330.8 3 334.6 3 334.6 18.9 330.8 22.7"/><polygon class="cls-1" points="334.6 26.9 334.6 47.1 330.8 47.1 330.8 30.8 334.6 26.9"/><polygon class="cls-1" points="468.2 3 468.2 22.8 449.4 22.8 449.4 26.2 468.2 26.2 468.2 47.1 472.1 47.1 472.1 3 468.2 3"/><polygon class="cls-1" points="443.7 26.2 443.7 22.8 443.7 3 439.9 3 439.9 47.1 443.7 47.1 443.7 26.2"/><polygon class="cls-1" points="366.1 6.3 378.7 6.3 378.7 2.7 349.3 2.7 349.3 6.3 362.2 6.3 366.1 6.3"/><rect class="cls-1" x="362.2" y="12" width="3.9" height="35.1"/><path class="cls-1" d="m402.9,42c-2.6-1.6-4.5-3.8-6-6.7-1-2.1-1.7-4.5-2-7h-4c.3,3.3,1.1,6.3,2.5,9,1.7,3.4,4.2,6,7.3,7.8,3.2,1.9,6.7,2.8,10.7,2.8,4.2,0,8.1-.8,11.6-2.3v-3.8c-3.3,1.7-7,2.6-11.2,2.6-3.3-.1-6.3-.9-8.9-2.4h0Z"/><path class="cls-1" d="m413.1,2c-4.2,0-8,1-11.4,3s-6,4.8-7.9,8.4c-1.5,2.8-2.3,5.8-2.7,9.1h4c.3-2.7,1-5.2,2-7.5,1.5-3,3.6-5.4,6.3-7.1,2.8-1.7,6-2.5,9.6-2.5s6.9.8,10.1,2.3V3.6c-3.1-1-6.4-1.6-10-1.6h0Z"/><polygon class="cls-1" points="312.7 2.8 312.6 3.2 300.9 41.1 300.9 41.5 300.9 41.3 291.2 9.6 289.3 15.8 298.8 46.9 303 46.9 312.6 15.9 316.4 3.2 316.4 2.8 312.7 2.8"/><polygon class="cls-1" points="277.2 40.7 277.2 40.6 265.6 2.8 261.7 2.8 275.3 46.9 277.2 40.7"/><path class="cls-1" d="m39.6,44.2c-10.2,0-18.7-7.6-20.1-17.5h-3.6c1.4,11.9,11.4,21.1,23.7,21.1,7.9,0,14.9-3.8,19.2-9.8l-3-2.1c-3.6,5.1-9.5,8.3-16.2,8.3h0Z"/><path class="cls-1" d="m19.6,21c1.4-9.8,9.9-17.3,20-17.3,7.1,0,13.4,3.7,17,9.2l3-2.1C55.3,4.3,48,0,39.6,0c-12.2,0-22.2,9.1-23.7,20.9h3.7v.1Z"/></svg>