<?xml version="1.0" encoding="UTF-8"?><svg id="Layer_1" xmlns="http://www.w3.org/2000/svg" viewBox="0 0 601.89 515.75"><defs><style>.cls-1{fill:#fff;}</style></defs><path class="cls-1" d="m53.58,436.31c-3.59,1.74-10.77,3.58-19.94,3.58-17.2,0-33.64-10.19-33.64-31.76,0-16.15,12.28-32.31,36.19-32.31,9.64,0,15.02,2.11,17.2,3.12l-1.51,3.76c-3.78-1.84-9.45-3.12-15.4-3.12-20.69,0-31.65,12.21-31.65,28.91,0,15.24,10.49,27.53,30.52,27.53,6.24,0,12.47-1.19,16.82-3.3l1.42,3.58h-.01Z"/><path class="cls-1" d="m71.35,381.7c0,2.02-1.51,3.95-3.97,3.95-2.17,0-3.68-1.93-3.68-3.95s1.7-3.95,3.87-3.95,3.78,1.84,3.78,3.95Zm-6.14,57.09v-44.06h4.63v44.06h-4.63Z"/><path class="cls-1" d="m92.98,381.61v13.12h14.36v3.58h-14.36v28.18c0,5.42,1.7,9.54,7.27,9.54,2.74,0,4.63-.37,5.95-.83l.57,3.49c-1.61.64-3.97,1.19-6.99,1.19-3.59,0-6.52-1.1-8.41-3.3-2.27-2.48-3.02-6.52-3.02-10.65v-27.63h-8.31v-3.58h8.31v-11.75l4.63-1.38v.02Z"/><path class="cls-1" d="m116.98,394.74l13.51,29.46c1.32,2.85,2.83,6.52,3.68,9.27h.19c1.04-2.75,2.27-6.06,3.78-9.64l12.66-29.1h5.01l-16.06,35.61c-6.24,13.95-10.3,20.83-16.35,25.06-3.87,2.75-7.37,3.76-8.31,3.95l-1.23-3.76c2.27-.64,5.48-1.93,8.31-4.31,2.36-1.93,5.86-5.6,8.69-11.84.38-.83.57-1.38.57-1.74s-.19-1.01-.66-2.02l-18.8-40.94h5.01,0Z"/><path class="cls-1" d="m230.93,416.21c0,16.52-13.23,23.68-24.38,23.68-13.51,0-23.34-9.64-23.34-22.67,0-14.69,11.34-23.59,24-23.59,14.55,0,23.72,10,23.72,22.58Zm-43.08.73c0,12.3,9.16,19.27,18.99,19.27s19.46-7.07,19.46-19.73c0-8.35-5.76-19.18-19.09-19.18s-19.37,9.36-19.37,19.64h.01Z"/><path class="cls-1" d="m243.31,438.79v-40.48h-6.9v-3.58h6.9v-2.11c0-7.53,1.61-13.12,5.48-16.7,2.83-2.57,6.61-3.95,10.77-3.95,3.21,0,6.05.83,7.46,1.65l-1.51,3.49c-1.42-.73-3.31-1.38-6.33-1.38-9.26,0-11.24,7.89-11.24,16.8v2.2h13.32v3.58h-13.32v40.48h-4.63Z"/><path class="cls-1" d="m292.91,376.93h4.63v58.1h31.56v3.76h-36.19v-61.86h0Z"/><path class="cls-1" d="m381.26,416.21c0,16.52-13.23,23.68-24.38,23.68-13.51,0-23.34-9.64-23.34-22.67,0-14.69,11.34-23.59,24-23.59,14.55,0,23.71,10,23.71,22.58h.01Zm-43.08.73c0,12.3,9.17,19.27,18.99,19.27s19.46-7.07,19.46-19.73c0-8.35-5.76-19.18-19.08-19.18s-19.37,9.36-19.37,19.64Z"/><path class="cls-1" d="m393.64,405.38c0-3.58-.09-7.07-.38-10.65h4.35l.38,8.81h.19c2.74-5.42,9.17-9.91,17.48-9.91,4.16,0,17.67,1.83,17.67,20.1v25.06h-4.63v-25.06c0-8.63-3.87-16.25-14.27-16.25-7.28,0-13.32,4.86-15.4,10.46-.38,1.01-.76,2.57-.76,3.95v26.89h-4.63v-33.41h0Z"/><path class="cls-1" d="m489.73,373.08v55.07c0,3.58.09,7.07.38,10.65h-4.25l-.28-9.18h-.19c-2.65,5.51-8.88,10.28-18.33,10.28-12.75,0-21.83-9.91-21.83-22.12-.09-14.32,10.11-24.14,22.87-24.14,9.45,0,14.83,4.86,16.82,8.44h.19v-29h4.63,0Zm-4.63,39.37c0-1.28-.19-3.03-.57-4.31-1.98-5.97-7.84-10.83-16.34-10.83-10.77,0-18.33,7.99-18.33,19.92,0,9.91,5.95,19,18.24,19,7.75,0,14.55-5.14,16.44-12.11.38-1.19.57-2.39.57-3.86v-7.8h0Z"/><path class="cls-1" d="m549.82,416.21c0,16.52-13.23,23.68-24.38,23.68-13.51,0-23.34-9.64-23.34-22.67,0-14.69,11.34-23.59,24-23.59,14.55,0,23.71,10,23.71,22.58h.01Zm-43.08.73c0,12.3,9.17,19.27,18.99,19.27s19.46-7.07,19.46-19.73c0-8.35-5.76-19.18-19.08-19.18s-19.37,9.36-19.37,19.64Z"/><path class="cls-1" d="m562.2,405.38c0-3.58-.09-7.07-.38-10.65h4.35l.38,8.81h.19c2.74-5.42,9.17-9.91,17.48-9.91,4.16,0,17.67,1.83,17.67,20.1v25.06h-4.63v-25.06c0-8.63-3.87-16.25-14.27-16.25-7.28,0-13.32,4.86-15.4,10.46-.38,1.01-.76,2.57-.76,3.95v26.89h-4.63v-33.41h0Z"/><path class="cls-1" d="m384.07,0c-3.95,6.09-8.6,12-13.96,17.73-11.68,12.5-25.83,23.3-40.62,33.38-5.61-3.72-11.26-7.35-16.89-10.96-.2-.12-.39-.24-.59-.37C330.47,27.59,347.57,15.04,360.23,0h23.84Z"/><path class="cls-1" d="m390.23,359.82h-22.02c-12.87-20.11-33.59-35.64-56.32-50.66-5.12-3.39-10.35-6.74-15.61-10.12l-.04-.02s-.38-.26-.53-.34c-2.09-1.35-4.21-2.7-6.34-4.07-.72-.46-1.43-.92-2.14-1.38-1.24-.81-2.47-1.6-3.71-2.41-.75-.48-1.49-.97-2.24-1.46-.75-.49-1.49-.98-2.23-1.47l-2.5-1.66c-16.28-10.89-32.01-22.53-44.78-36.2-20.77-22.22-30.86-46.92-30.86-75.51s10.09-53.29,30.83-75.49c11.68-12.5,25.83-23.3,40.62-33.38,5.61,3.72,11.26,7.35,16.89,10.96.2.12.39.24.59.37-37.7,24.93-69.78,51.26-69.78,97.55s32.16,72.69,69.91,97.64c5.12,3.39,10.35,6.74,15.61,10.12l.04.02s.38.26.53.34c1.39.89,2.79,1.8,4.2,2.7,1.36.87,2.73,1.76,4.11,2.64,2.78,1.8,5.58,3.62,8.34,5.46l2.5,1.66c16.28,10.89,32.01,22.53,44.78,36.2,8.46,9.06,15.15,18.54,20.12,28.52h.01Z"/><path class="cls-1" d="m294.76,101.22l-.04-2.61v-10.29l-.8,3.55v3.55s-.8,0-.8,1.42.8,1.42.8,1.42l-.8,3.55-.8,1.42v1.42s-2.37,1.42-2.37,4.26c0,2.29-.06,5.26-.09,6.34,0,.23-.21.4-.46.4h-1.1l-2.3,2.48h.95c.34,0,.62.26.62.56v11.5s-2.37,0-3.16,1.42v2.13s-.8,0-.8.71.8.71.8.71v1.42s-26.04,8.51-27.62,29.78c0,0-1.58.71-1.58,1.42v14.19l-11.44,2.48v39.71l6.69,5.27s31.72,25.32,49.82,36.2l2.78,1.66c.82.49,1.65.98,2.48,1.47s1.65.98,2.5,1.46c1.37.81,2.74,1.61,4.12,2.41.8.46,1.59.92,2.39,1.38,2.37,1.37,4.72,2.74,7.06,4.07.16.09.64.37.64.37l20.27-11.04c-1.53-.88-3.06-1.77-4.57-2.64-1.57-.91-3.12-1.81-4.67-2.7-.17-.09-.59-.34-.59-.34l-.05-.02c-5.86-3.38-11.67-6.74-17.37-10.12-14.1-8.38-27.52-16.92-39.1-26.31-2.89-2.35-5.66-4.75-8.32-7.2l.1-27.17c2.37-.71,12.54-11.06,12.54-11.06-.02-10.24-.04-15.37,0-16.32.27-6.59,1.58-21.28,11.04-28.36v-18.8l.64-1.35h.88l.07-6.8s0-2.84.8-3.55v-2.05"/><path class="cls-1" d="m376.99,109.03h-78.25c.12-3.25-1.97-4.38-1.97-4.38v-1.42l-.71-1.42-.71-3.55s.71,0,.71-1.42-.71-1.42-.71-1.42v-3.55l-.29-2.13,62.37-.78c5.25,4.51,9.12,8.98,12.77,12.89,2.41,2.59,4.68,4.51,6.8,7.17h0Z"/><path class="cls-1" d="m399.83,159.9h-71.94c-2.21-8.93-8.37-15.17-13.91-19.15h81.2c2.15,6.18,3.69,12.55,4.64,19.15h.01Z"/><path class="cls-1" d="m397.79,192.32c-.93,6.59-2.45,12.98-4.55,19.15h-52.86v-19.15h57.41Z"/><path class="cls-1" d="m363.79,243.9c-1.04,2.54-2.15,5.05-3.31,7.52-1.92,4.05-3.95,7.91-6.09,11.62h-9.1v-19.15h18.52-.01Z"/><path class="cls-1" d="m289.86,309.25c-22.69,15-43.35,30.52-56.19,50.58h-22c4.95-9.98,11.64-19.46,20.12-28.52,11.68-12.5,25.83-23.3,40.62-33.38,5.61,3.72,11.25,7.34,16.85,10.93.21.12.4.26.61.39h-.01Z"/><path class="cls-1" d="m400.95,174.51c0,5.61-.39,11.07-1.17,16.39-.97,6.59-2.53,12.98-4.72,19.15-4.02,11.42-10.14,22.19-18.4,32.42-2.05,2.54-4.23,5.05-6.54,7.52-3.78,4.05-7.8,7.91-12.04,11.62-8.86,7.79-18.58,14.93-28.58,21.76-5.61-3.72-11.25-7.34-16.85-10.93-.21-.12-.4-.26-.61-.39,5.19-3.44,10.29-6.9,15.19-10.43,8.45-6.08,16.37-12.38,23.42-19.15,10.02-9.63,18.29-20.19,23.78-32.42,2.68-5.96,4.7-12.32,5.94-19.15.94-5.17,1.44-10.63,1.44-16.39s-.48-10.96-1.37-16.03c-1.21-6.82-3.2-13.19-5.85-19.15-5.43-12.23-13.61-22.8-23.57-32.42-7.01-6.78-14.89-13.07-23.29-19.15-10.09-7.29-20.94-14.26-31.94-21.32-22.74-14.57-46.25-29.66-64.02-48.68-5.36-5.74-10-11.64-13.96-17.73h23.83c16.32,19.4,40.02,34.61,64.46,50.32,18.05,11.6,36.6,23.5,52.36,37.44,4.09,3.61,7.99,7.35,11.64,11.26,2.42,2.59,4.7,5.22,6.82,7.88,8.19,10.24,14.26,21,18.24,32.42,2.15,6.18,3.71,12.55,4.65,19.15.75,5.21,1.13,10.54,1.13,16.03h0Z"/><path class="cls-1" d="m72.7,475.72c0-2.37,1.91-4.22,4.51-4.22s4.51,1.74,4.51,4.05c0,2.48-1.86,4.4-4.51,4.4s-4.51-1.86-4.51-4.22h0Zm.96,9.18h7.04v30.09h-7.04v-30.09Z"/><path class="cls-1" d="m117.54,494.81h6.92v15.71c-4.11,3.33-9.86,5.01-15.44,5.01-12.23,0-21.24-8.51-21.24-20.28s9.02-20.28,21.35-20.28c6.59,0,12.12,2.2,15.83,6.42l-4.62,4.51c-3.1-3.1-6.65-4.51-10.88-4.51-8.39,0-14.32,5.69-14.32,13.86s5.91,13.86,14.26,13.86c2.81,0,5.58-.56,8.11-2.03v-12.29h.03Z"/><path class="cls-1" d="m163.69,508.84v6.14h-29.57v-39.44h28.79v6.14h-21.47v10.25h19.04v6.02h-19.04v10.88h22.25Z"/><path class="cls-1" d="m208.09,514.98l-.06-26.15-12.96,21.64h-3.27l-12.96-21.3v25.81h-6.99v-39.44h6.02l15.66,26.15,15.39-26.15h6.02l.06,39.44h-6.94.03Z"/><path class="cls-1" d="m249.21,481.74h-13.07v-6.19h33.47v6.19h-13.07v33.24h-7.32v-33.24Z"/><path class="cls-1" d="m299.52,502.19h-23.61c.84,4.4,4.51,7.21,9.75,7.21,3.38,0,6.02-1.07,8.16-3.27l3.77,4.34c-2.7,3.21-6.92,4.9-12.12,4.9-10.09,0-16.63-6.48-16.63-15.44s6.59-15.39,15.56-15.39,15.22,6.14,15.22,15.56c0,.56-.06,1.41-.11,2.08h.01Zm-23.66-4.68h17.07c-.56-4.34-3.88-7.32-8.51-7.32s-7.89,2.93-8.56,7.32Z"/><path class="cls-1" d="m330.74,497.36v17.64h-6.65v-3.67c-1.68,2.6-4.95,4.05-9.46,4.05-6.88,0-11.22-3.77-11.22-9.02s3.38-8.96,12.5-8.96h7.78v-.46c0-4.11-2.48-6.54-7.49-6.54-3.38,0-6.88,1.13-9.13,2.98l-2.75-5.12c3.21-2.48,7.89-3.73,12.73-3.73,8.68,0,13.69,4.11,13.69,12.79v.03Zm-7.04,8.22v-3.5h-7.26c-4.8,0-6.08,1.8-6.08,4,0,2.54,2.14,4.17,5.75,4.17s6.42-1.58,7.61-4.68h-.01Z"/><path class="cls-1" d="m390.07,497.75v17.24h-7.04v-16.34c0-5.35-2.48-7.95-6.77-7.95-4.62,0-7.84,3.04-7.84,9.02v15.27h-7.04v-16.34c0-5.35-2.48-7.95-6.77-7.95-4.68,0-7.84,3.04-7.84,9.02v15.27h-7.04v-30.09h6.71v3.83c2.26-2.7,5.75-4.17,9.86-4.17,4.4,0,8.05,1.63,10.15,5.01,2.43-3.1,6.48-5.01,11.26-5.01,7.26,0,12.33,4.11,12.33,13.19h0Z"/><path class="cls-1" d="m413.68,515.13v-4.27l4.4-4.09c8.73-8.08,12.85-12.53,12.9-17.43,0-3.35-1.78-6.25-6.63-6.25-3.28,0-6.07,1.67-7.92,3.09l-2.06-4.99c2.67-2.13,6.73-3.8,11.39-3.8,8.23,0,12.26,5.17,12.26,11.24,0,6.53-4.69,11.77-11.18,17.76l-3.21,2.82v.11h15.21v5.81h-25.15Z"/><path class="cls-1" d="m470.48,496.32c0,11.96-4.67,19.44-13.57,19.44s-13.09-7.79-13.16-19.08c0-11.54,4.91-19.29,13.58-19.29s13.15,8.02,13.15,18.93Zm-19.68.35c-.02,9.05,2.46,13.73,6.34,13.73,4.16,0,6.29-5.03,6.29-13.92s-2.03-13.71-6.28-13.71c-3.72,0-6.35,4.62-6.34,13.89Z"/><path class="cls-1" d="m474.88,515.13v-4.27l4.4-4.09c8.73-8.08,12.85-12.53,12.9-17.43,0-3.35-1.78-6.25-6.63-6.25-3.28,0-6.07,1.67-7.92,3.09l-2.06-4.99c2.67-2.13,6.73-3.8,11.39-3.8,8.23,0,12.26,5.17,12.26,11.24,0,6.53-4.69,11.77-11.18,17.76l-3.21,2.82v.11h15.21v5.81h-25.15Z"/><path class="cls-1" d="m506.87,507.87c1.47.85,4.93,2.28,8.46,2.28,5.36,0,7.53-3.03,7.51-5.95-.04-4.37-4.15-6.28-8.44-6.29h-3.21v-5.12h3.13c3.24,0,7.34-1.47,7.34-5.16,0-2.56-1.84-4.65-5.94-4.65-3,0-6.05,1.31-7.59,2.32l-1.59-5.08c2.11-1.44,6.24-2.84,10.69-2.84,7.67,0,11.58,4.24,11.58,9.08,0,3.87-2.29,7.05-6.81,8.67v.11c4.5.83,8.13,4.24,8.13,9.25,0,6.27-5.27,11.25-14.44,11.25-4.52,0-8.39-1.26-10.38-2.57l1.57-5.31Z"/></svg>