<?xml version="1.0" encoding="UTF-8"?><svg id="Layer_1" xmlns="http://www.w3.org/2000/svg" viewBox="0 0 163.52 294.2"><defs><style>.cls-1{fill:#fff;}</style></defs><path class="cls-1" d="m149.72,0c-3.23,4.98-7.03,9.81-11.41,14.5-9.55,10.22-21.12,19.05-33.21,27.29-4.59-3.04-9.21-6.01-13.81-8.96-.16-.1-.32-.2-.48-.3C105.9,22.56,119.88,12.3,130.23,0h19.49Z"/><path class="cls-1" d="m154.76,294.19h-18c-10.52-16.44-27.46-29.14-46.05-41.42-4.19-2.77-8.46-5.51-12.76-8.27l-.03-.02s-.31-.21-.43-.28c-1.71-1.1-3.44-2.21-5.18-3.33-.59-.38-1.17-.75-1.75-1.13-1.01-.66-2.02-1.31-3.03-1.97-.61-.39-1.22-.79-1.83-1.19-.61-.4-1.22-.8-1.82-1.2l-2.04-1.36c-13.31-8.9-26.17-18.42-36.61-29.6C8.25,186.25,0,166.06,0,142.68s8.25-43.57,25.21-61.72c9.55-10.22,21.12-19.05,33.21-27.29,4.59,3.04,9.21,6.01,13.81,8.96.16.1.32.2.48.3-30.82,20.38-57.05,41.91-57.05,79.76s26.29,59.43,57.16,79.83c4.19,2.77,8.46,5.51,12.76,8.27l.03.02s.31.21.43.28c1.14.73,2.28,1.47,3.43,2.21,1.11.71,2.23,1.44,3.36,2.16,2.27,1.47,4.56,2.96,6.82,4.46l2.04,1.36c13.31,8.9,26.17,18.42,36.61,29.6,6.92,7.41,12.39,15.16,16.45,23.32h0Z"/><path class="cls-1" d="m76.7,82.76l-.03-2.13v-8.41l-.65,2.9v2.9s-.65,0-.65,1.16.65,1.16.65,1.16l-.65,2.9-.65,1.16v1.16s-1.94,1.16-1.94,3.48c0,1.87-.05,4.3-.07,5.18,0,.19-.17.33-.38.33h-.9l-1.88,2.03h.78c.28,0,.51.21.51.46v9.4s-1.94,0-2.58,1.16v1.74s-.65,0-.65.58.65.58.65.58v1.16s-21.29,6.96-22.58,24.35c0,0-1.29.58-1.29,1.16v11.6l-9.35,2.03v32.47l5.47,4.31s25.93,20.7,40.73,29.6l2.27,1.36c.67.4,1.35.8,2.03,1.2s1.35.8,2.04,1.19c1.12.66,2.24,1.32,3.37,1.97.65.38,1.3.75,1.95,1.13,1.94,1.12,3.86,2.24,5.77,3.33.13.07.52.3.52.3l16.57-9.03c-1.25-.72-2.5-1.45-3.74-2.16-1.28-.74-2.55-1.48-3.82-2.21-.14-.07-.48-.28-.48-.28l-.04-.02c-4.79-2.76-9.54-5.51-14.2-8.27-11.53-6.85-22.5-13.83-31.97-21.51-2.36-1.92-4.63-3.88-6.8-5.89l.08-22.21c1.94-.58,10.25-9.04,10.25-9.04-.02-8.37-.03-12.57,0-13.34.22-5.39,1.29-17.4,9.03-23.19v-15.37l.52-1.1h.72l.06-5.56s0-2.32.65-2.9v-1.68"/><path class="cls-1" d="m143.93,89.14h-63.98c.1-2.66-1.61-3.58-1.61-3.58v-1.16l-.58-1.16-.58-2.9s.58,0,.58-1.16-.58-1.16-.58-1.16v-2.9l-.24-1.74,50.99-.64c4.29,3.69,7.46,7.34,10.44,10.54,1.97,2.12,3.83,3.69,5.56,5.86h0Z"/><path class="cls-1" d="m162.61,130.73h-58.82c-1.81-7.3-6.84-12.4-11.37-15.66h66.39c1.76,5.05,3.02,10.26,3.79,15.66h.01Z"/><path class="cls-1" d="m160.94,157.24c-.76,5.39-2,10.61-3.72,15.66h-43.22v-15.66h46.94Z"/><path class="cls-1" d="m133.14,199.41c-.85,2.08-1.76,4.13-2.71,6.15-1.57,3.31-3.23,6.47-4.98,9.5h-7.44v-15.66h15.14,0Z"/><path class="cls-1" d="m72.7,252.84c-18.55,12.26-35.44,24.95-45.94,41.35H8.77c4.05-8.16,9.52-15.91,16.45-23.32,9.55-10.22,21.12-19.05,33.21-27.29,4.59,3.04,9.2,6,13.78,8.94.17.1.33.21.5.32h-.01Z"/><path class="cls-1" d="m163.52,142.68c0,4.59-.32,9.05-.96,13.4-.79,5.39-2.07,10.61-3.86,15.66-3.29,9.34-8.29,18.14-15.04,26.51-1.68,2.08-3.46,4.13-5.35,6.15-3.09,3.31-6.38,6.47-9.84,9.5-7.24,6.37-15.19,12.21-23.37,17.79-4.59-3.04-9.2-6-13.78-8.94-.17-.1-.33-.21-.5-.32,4.24-2.81,8.41-5.64,12.42-8.53,6.91-4.97,13.38-10.12,19.15-15.66,8.19-7.87,14.95-16.51,19.44-26.51,2.19-4.87,3.84-10.07,4.86-15.66.77-4.23,1.18-8.69,1.18-13.4s-.39-8.96-1.12-13.11c-.99-5.58-2.62-10.78-4.78-15.66-4.44-10-11.13-18.64-19.27-26.51-5.73-5.54-12.17-10.69-19.04-15.66-8.25-5.96-17.12-11.66-26.11-17.43-18.59-11.91-37.81-24.25-52.34-39.8C20.83,9.81,17.03,4.98,13.8,0h19.48c13.34,15.86,32.72,28.3,52.7,41.14,14.76,9.48,29.92,19.21,42.81,30.61,3.34,2.95,6.53,6.01,9.52,9.21,1.98,2.12,3.84,4.27,5.58,6.44,6.7,8.37,11.66,17.17,14.91,26.51,1.76,5.05,3.03,10.26,3.8,15.66.61,4.26.92,8.62.92,13.11h0Z"/></svg>